<?xml version="1.0" standalone="no"?>
<!DOCTYPE svg PUBLIC "-//W3C//DTD SVG 1.1//EN" "http://www.w3.org/Graphics/SVG/1.1/DTD/svg11.dtd">
<svg xmlns="http://www.w3.org/2000/svg">
<metadata>Generated by Fontastic.me</metadata>
<defs>
<font id="fontastic" horiz-adv-x="512">
<font-face font-family="fontastic" units-per-em="512" ascent="480" descent="-32"/>
<missing-glyph horiz-adv-x="512" />

<glyph glyph-name="alert" unicode="&#97;" d="M320 32l-128 0 0 96 128 0z m-16 160l-96 0-16 288 128 0z"/>
<glyph glyph-name="alert-circled" unicode="&#98;" d="M477 90l-207 349c-3 5-8 9-14 9-6 0-11-4-14-9l-207-349c-2-5-4-13-2-18 3-5 9-8 14-8l418 0c5 0 11 3 14 8 3 5 1 13-2 18z m-189 22l-64 0 0 48 64 0z m0 80l-64 0 0 144 64 0z"/>
<glyph glyph-name="android-add" unicode="&#99;" d="M416 235l-139 0 0-139-42 0 0 139-139 0 0 42 139 0 0 139 42 0 0-139 139 0z"/>
<glyph glyph-name="android-add-circle" unicode="&#100;" d="M256 464c-115 0-208-93-208-208 0-115 93-208 208-208 115 0 208 93 208 208 0 115-93 208-208 208z m107-229l-86 0 0-86-42 0 0 86-86 0 0 42 86 0 0 86 42 0 0-86 86 0z"/>
<glyph glyph-name="android-alarm-clock" unicode="&#101;" d="M470 387l-98 82-28-33 98-82z m-303 50l-28 33-97-83 28-33z m100-98l-32 0 0-127 101-61 16 27-85 50z m-11 85c-107 0-193-86-193-191 0-105 86-191 193-191 106 0 193 86 193 191 0 105-87 191-193 191z m0-340c-82 0-150 67-150 149 0 82 68 149 150 149 82 0 150-67 150-149 0-83-68-149-150-149z"/>
<glyph glyph-name="android-alert" unicode="&#102;" d="M256 464c-114 0-208-94-208-208 0-114 94-208 208-208 114 0 208 94 208 208 0 114-94 208-208 208z m24-312l-48 0 0 40 48 0z m0 88l-48 0 0 128 48 0z"/>
<glyph glyph-name="android-apps" unicode="&#103;" d="M96 336l80 0 0 80-80 0z m120-240l80 0 0 80-80 0z m-120 0l80 0 0 80-80 0z m0 120l80 0 0 80-80 0z m120 0l80 0 0 80-80 0z m120 200l0-80 80 0 0 80z m-120-80l80 0 0 80-80 0z m120-120l80 0 0 80-80 0z m0-120l80 0 0 80-80 0z"/>
<glyph glyph-name="android-archive" unicode="&#104;" d="M454 412l-33 39c-6 8-16 13-26 13l-278 0c-10 0-20-5-26-13l-33-39c-7-7-10-17-10-29l0-289c0-25 21-46 46-46l324 0c25 0 46 21 46 46l0 289c0 12-3 22-10 29z m-198-283l-127 127 81 0 0 46 92 0 0-46 81 0z m-159 289l18 23 277 0 22-23z"/>
<glyph glyph-name="android-arrow-back" unicode="&#105;" d="M427 277l-260 0 120 120-31 30-171-171 171-171 30 30-119 120 260 0z"/>
<glyph glyph-name="android-arrow-down" unicode="&#106;" d="M277 427l0-260 120 120 30-31-171-171-171 171 30 30 120-119 0 260z"/>
<glyph glyph-name="android-arrow-dropdown" unicode="&#107;" d="M128 320l128-128 128 128z"/>
<glyph glyph-name="android-arrow-dropdown-circle" unicode="&#108;" d="M256 464c-115 0-208-93-208-208 0-115 93-208 208-208 115 0 208 93 208 208 0 115-93 208-208 208z m0-272l-96 96 192 0z"/>
<glyph glyph-name="android-arrow-dropleft" unicode="&#109;" d="M320 384l-128-128 128-128z"/>
<glyph glyph-name="android-arrow-dropleft-circle" unicode="&#110;" d="M464 256c0 115-93 208-208 208-115 0-208-93-208-208 0-115 93-208 208-208 115 0 208 93 208 208z m-272 0l96 96 0-192z"/>
<glyph glyph-name="android-arrow-dropright" unicode="&#111;" d="M192 384l128-128-128-128z"/>
<glyph glyph-name="android-arrow-dropright-circle" unicode="&#112;" d="M256 48c115 0 208 93 208 208 0 115-93 208-208 208-115 0-208-93-208-208 0-115 93-208 208-208z m-32 112l0 192 96-96z"/>
<glyph glyph-name="android-arrow-dropup" unicode="&#113;" d="M128 192l128 128 128-128z"/>
<glyph glyph-name="android-arrow-dropup-circle" unicode="&#114;" d="M464 256c0 115-93 208-208 208-115 0-208-93-208-208 0-115 93-208 208-208 115 0 208 93 208 208z m-112-32l-192 0 96 96z"/>
<glyph glyph-name="android-arrow-forward" unicode="&#115;" d="M85 235l260 0-120-120 31-30 171 171-171 171-30-30 119-120-260 0z"/>
<glyph glyph-name="android-arrow-up" unicode="&#116;" d="M277 85l0 260 120-120 30 31-171 171-171-171 30-30 120 119 0-260z"/>
<glyph glyph-name="android-attach" unicode="&#117;" d="M341 384l0-235c0-47-38-85-85-85-47 0-85 38-85 85l0 246c0 30 23 53 53 53 30 0 53-23 53-53l0-246c0-11-9-21-21-21-12 0-21 10-21 21l0 203-32 0 0-203c0-30 23-53 53-53 30 0 53 23 53 53l0 246c0 47-38 85-85 85-47 0-85-38-85-85l0-246c0-65 52-117 117-117 65 0 117 52 117 117l0 235z"/>
<glyph glyph-name="android-bar" unicode="&#118;" d="M235 235l0-131-107 0 0-40 256 0 0 40-107 0 0 131 171 170 0 43-384 0 0-43z m-75 128l-43 42 278 0-43-42z"/>
<glyph glyph-name="android-bicycle" unicode="&#119;" d="M331 381c18 0 33 15 33 33 0 19-15 34-33 34-19 0-34-15-34-34 0-18 15-33 34-33z m56-130c-52 0-94-42-94-94 0-51 42-93 94-93 51 0 93 42 93 93 0 52-42 94-93 94z m0-159c-37 0-66 29-66 65 0 37 29 66 66 66 36 0 65-29 65-66 0-36-29-65-65-65z m-81 196l78 0 0 32-59 0-34 60c-6 9-16 16-28 16-8 0-16-4-22-9l-72-69c-5-6-9-14-9-23 0-12 9-21 19-27l61-38 0-86 32 0 0 112-39 32 43 45z m-181-37c-51 0-93-42-93-94 0-51 42-93 93-93 52 0 94 42 94 93 0 52-42 94-94 94z m0-159c-36 0-65 29-65 65 0 37 29 66 65 66 37 0 66-29 66-66 0-36-29-65-66-65z"/>
<glyph glyph-name="android-boat" unicode="&#120;" d="M84 99l1 0c34 0 64 19 86 42 21-23 51-42 85-42 34 0 64 19 85 43 22-24 51-43 86-43l1 0 51 139c2 5 1 11-1 17-2 5-7 8-13 10l-38 13 0 98c0 23-20 43-43 43l-64 0-16 53-96 0-16-53-64 0c-23 0-43-20-43-43l0-98-38-13c-5-2-11-5-13-10-2-6-3-11-1-17z m44 277l256 0 0-84-128 41-128-41z m213-272c-52-36-118-36-170 0 0 0-58-64-107-64l21 0c30 0 59 12 86 26 53-28 117-28 170 0 27-14 56-26 86-26l21 0c-48 0-107 64-107 64z"/>
<glyph glyph-name="android-bookmark" unicode="&#121;" d="M360 448l-208 0c-22 0-40-18-40-40l0-344 144 64 144-64 0 344c0 22-18 40-40 40z"/>
<glyph glyph-name="android-bulb" unicode="&#122;" d="M256 342c26 0 50-10 68-28 18-19 28-43 28-68 0-18-4-34-13-49-8-14-21-26-35-34l-16-10 0-89-64 0 0 89-16 10c-30 17-48 49-48 83 0 25 10 49 28 68 18 18 43 28 68 28m21 138c-6 0-42 0-42 0l0-64 42 0z m129-54l-38-38 30-30 38 38z m-300 0l-30-30 38-38 30 30z m150-52c-70 0-128-58-128-128 0-47 26-89 64-111l0-103 128 0 0 103c38 22 64 63 64 111 0 70-58 128-128 128z m224-107l-64 0 0-42 64 0z m-384 0l-64 0 0-42 64 0z"/>
<glyph glyph-name="android-bus" unicode="&#65;" d="M80 160c0-19 14-25 27-36l0-39c0-11 9-21 21-21l21 0c12 0 22 10 22 21l0 22 170 0 0-22c0-11 10-21 22-21l21 0c12 0 21 10 21 21l0 39c13 11 27 18 27 36l0 204c0 74-82 84-176 84-94 0-176-10-176-84z m80-16c-18 0-32 14-32 32 0 18 14 32 32 32 18 0 32-14 32-32 0-18-14-32-32-32z m192 0c-18 0-32 14-32 32 0 18 14 32 32 32 18 0 32-14 32-32 0-18-14-32-32-32z m32 123l-256 0 0 106 256 0z"/>
<glyph glyph-name="android-calendar" unicode="&#66;" d="M368 240l-96 0 0-96 96 0z m-32 208l0-32-160 0 0 32-48 0 0-32-24 0c-22 0-40-18-40-40l0-272c0-22 18-40 40-40l304 0c22 0 40 18 40 40l0 272c0 22-18 40-40 40l-24 0 0 32z m72-344l-304 0 0 212 304 0z"/>
<glyph glyph-name="android-call" unicode="&#67;" d="M427 181c-27 0-53 5-76 12-8 2-16 1-21-5l-47-47c-61 31-110 80-141 141l47 47c5 5 7 13 5 21-8 24-13 50-13 77 0 11-9 21-21 21l-75 0c-11 0-21-10-21-21 0-201 162-363 363-363 11 0 21 10 21 21l0 75c0 12-10 21-21 21z"/>
<glyph glyph-name="android-camera" unicode="&#68;" d="M319 232c0-35-28-63-63-63-35 0-63 28-63 63 0 35 28 63 63 63 35 0 63-28 63-63z m121 184l-88 0-32 32-128 0-32-32-88 0c-22 0-40-18-40-40l0-272c0-22 18-40 40-40l368 0c22 0 40 18 40 40l0 272c0 22-18 40-40 40z m-184-296c-62 0-112 50-112 112 0 62 50 112 112 112 62 0 112-50 112-112 0-62-50-112-112-112z"/>
<glyph glyph-name="android-cancel" unicode="&#69;" d="M256 464c-115 0-208-93-208-208 0-115 93-208 208-208 115 0 208 93 208 208 0 115-93 208-208 208z m104-283l-29-29-75 75-75-75-29 29 75 75-75 75 29 29 75-75 75 75 29-29-75-75z"/>
<glyph glyph-name="android-car" unicode="&#70;" d="M403 395c-4 12-16 21-30 21l-234 0c-14 0-26-9-30-21l-45-118 0-160c0-11 10-21 21-21l22 0c11 0 21 10 21 21l0 11 256 0 0-11c0-11 10-21 21-21l22 0c11 0 21 10 21 21l0 160z m-264-203c-18 0-32 14-32 32 0 18 14 32 32 32 18 0 32-14 32-32 0-18-14-32-32-32z m234 0c-18 0-32 14-32 32 0 18 14 32 32 32 18 0 32-14 32-32 0-18-14-32-32-32z m-266 107l32 85 234 0 32-85z"/>
<glyph glyph-name="android-cart" unicode="&#71;" d="M170 134c-23 0-42-18-42-41 0-23 19-42 42-42 22 0 41 19 41 42 0 23-19 41-41 41z m-122 327l0-42 42 0 74-151-31-51c-3-6-5-13-5-20 0-28 19-42 45-42l243 0 0 40-238 0c-3 0-5 2-5 5 0 1 2 6 2 6l21 32 155 0c15 0 29 9 36 22l75 129c1 2 2 6 2 10 0 12-9 20-21 20l-308 0-19 42z m326-327c-22 0-41-18-41-41 0-23 19-42 41-42 23 0 42 19 42 42 0 23-19 41-42 41z"/>
<glyph glyph-name="android-chat" unicode="&#72;" d="M392 448l-334 0c-5 0-10-4-10-8l0-214c0-5 5-9 10-9l57 0 0-89 90 89 187 0c4 0 7 4 7 9l0 214c0 4-3 8-7 8z m64-63l-32 0 0-167c0-16-7-26-25-26l-181 0-39-39 130 0 90-89 0 89 57 0c5 0 8 4 8 9l0 214c0 4-3 9-8 9z"/>
<glyph glyph-name="android-checkbox" unicode="&#73;" d="M405 448l-298 0c-24 0-43-19-43-43l0-298c0-24 19-43 43-43l298 0c24 0 43 19 43 43l0 298c0 24-19 43-43 43z m-192-299l-106 107 30 30 76-77 162 162 30-30z"/>
<glyph glyph-name="android-checkbox-blank" unicode="&#74;" d="M405 448l-298 0c-24 0-43-19-43-43l0-298c0-24 19-43 43-43l298 0c24 0 43 19 43 43l0 298c0 24-19 43-43 43z"/>
<glyph glyph-name="android-checkbox-outline" unicode="&#75;" d="M169 297l-30-30 96-96 213 213-30 30-183-183z m236-190l-298 0 0 298 213 0 0 43-213 0c-24 0-43-19-43-43l0-298c0-24 19-43 43-43l298 0c24 0 43 19 43 43l0 170-43 0z"/>
<glyph glyph-name="android-checkbox-outline-blank" unicode="&#76;" d="M405 405l0-298-298 0 0 298 298 0m0 43l-298 0c-24 0-43-19-43-43l0-298c0-24 19-43 43-43l298 0c24 0 43 19 43 43l0 298c0 24-19 43-43 43z"/>
<glyph glyph-name="android-checkmark-circle" unicode="&#77;" d="M171 296l-29-30 93-93 208 208-29 29-179-178z m251-40c0-92-74-166-166-166-92 0-166 74-166 166 0 92 74 166 166 166 16 0 31-2 46-6l32 32c-24 11-50 16-78 16-114 0-208-94-208-208 0-114 94-208 208-208 114 0 208 94 208 208z"/>
<glyph glyph-name="android-clipboard" unicode="&#78;" d="M405 432l-87 0c-7 28-32 48-62 48-30 0-55-20-62-48l-87 0c-24 0-43-19-43-43l0-314c0-24 19-43 43-43l298 0c24 0 43 19 43 43l0 314c0 24-19 43-43 43z m-149 0c12 0 21-10 21-21 0-12-9-22-21-22-12 0-21 10-21 22 0 11 9 21 21 21z m152-360l-304 0 0 320 40 0 0-72 224 0 0 72 40 0z"/>
<glyph glyph-name="android-close" unicode="&#79;" d="M405 375l-30 30-119-119-119 119-30-30 119-119-119-119 30-30 119 119 119-119 30 30-119 119z"/>
<glyph glyph-name="android-cloud" unicode="&#80;" d="M403 295c-14 69-74 121-147 121-58 0-108-33-133-81-60-6-107-57-107-119 0-66 54-120 120-120l260 0c55 0 100 45 100 100 0 53-41 96-93 99z"/>
<glyph glyph-name="android-cloud-circle" unicode="&#81;" d="M256 464c-114 0-208-94-208-208 0-114 94-208 208-208 114 0 208 94 208 208 0 114-94 208-208 208z m94-291c0 0-176 0-177 0-35 0-63 28-63 62 0 35 28 63 63 63 1 0 2 0 3 0 9 36 42 62 80 62 46 0 83-37 83-83l11 0c29 0 52-23 52-52 0-29-23-52-52-52z"/>
<glyph glyph-name="android-cloud-done" unicode="&#82;" d="M403 295c-14 69-74 121-147 121-58 0-108-33-133-81-60-6-107-57-107-119 0-66 54-120 120-120l260 0c55 0 100 45 100 100 0 53-41 96-93 99z m-190-146l-74 75 30 30 44-45 111 111 30-30z"/>
<glyph glyph-name="android-cloud-outline" unicode="&#83;" d="M403 295c-14 69-74 121-147 121-58 0-108-33-133-81-60-6-107-57-107-119 0-66 54-120 120-120l260 0c55 0 100 45 100 100 0 53-41 96-93 99z m-7-159l-260 0c-44 0-80 36-80 80 0 44 36 80 80 80l14 0c13 46 55 80 106 80 61 0 110-49 110-110l0-10 30 0c33 0 60-27 60-60 0-33-27-60-60-60z"/>
<glyph glyph-name="android-color-palette" unicode="&#84;" d="M256 448c-106 0-192-86-192-192 0-106 86-192 192-192 18 0 32 14 32 32 0 9-3 16-9 21-5 6-8 13-8 22 0 18 14 32 32 32l38 0c59 0 107 48 107 106 0 94-86 171-192 171z m-117-192c-18 0-32 14-32 32 0 18 14 32 32 32 18 0 32-14 32-32 0-18-14-32-32-32z m64 85c-18 0-32 14-32 32 0 18 14 32 32 32 18 0 32-14 32-32 0-18-14-32-32-32z m106 0c-18 0-32 14-32 32 0 18 14 32 32 32 18 0 32-14 32-32 0-18-14-32-32-32z m64-85c-18 0-32 14-32 32 0 18 14 32 32 32 18 0 32-14 32-32 0-18-14-32-32-32z"/>
<glyph glyph-name="android-compass" unicode="&#85;" d="M256 281c-13 0-25-12-25-25 0-13 12-25 25-25 13 0 25 12 25 25 0 13-12 25-25 25z m0 199c-123 0-224-101-224-224 0-123 101-224 224-224 123 0 224 101 224 224 0 123-101 224-224 224z m49-273l-183-85 85 183 183 85z"/>
<glyph glyph-name="android-contact" unicode="&#86;" d="M331 174c-22-13-48-20-75-20-27 0-53 7-75 20-59-18-104-58-117-110l384 0c-13 52-58 92-117 110z m-75 274c-73 0-132-59-132-132 0-73 59-132 132-132 73 0 132 59 132 132 0 73-59 132-132 132z m0-231c-42 0-78 26-92 63l184 0c-14-37-50-63-92-63z"/>
<glyph glyph-name="android-contacts" unicode="&#87;" d="M239 168c-18-10-38-16-60-16-22 0-43 6-60 16-47-14-76-62-87-104l294 0c-11 42-40 90-87 104z m-60 224c-59 0-106-47-106-106 0-58 47-106 106-106 58 0 106 48 106 106 0 59-48 106-106 106z m0-187c-34 0-62 23-74 51l148 0c-12-28-40-51-74-51z m144-77l157 0c-11 42-40 82-87 96-17-10-38-16-60-16-15 0-29 3-42 8-8-13-17-26-28-35 26-10 46-33 60-53z m-16 184l100 0c-12-28-40-50-74-50-9 0-17 1-25 4-2-8-4-17-7-25 10-3 21-5 32-5 59 0 106 48 106 106 0 59-47 106-106 106-37 0-70-20-89-49 32-18 55-50 63-87z"/>
<glyph glyph-name="android-contract" unicode="&#88;" d="M64 141l77 0 0-77 51 0 0 128-128 0z m77 230l-77 0 0-51 128 0 0 128-51 0z m179-307l51 0 0 77 77 0 0 51-128 0z m51 307l0 77-51 0 0-128 128 0 0 51z"/>
<glyph glyph-name="android-create" unicode="&#89;" d="M64 144l0-80 80 0 236 236-80 80z m378 218c8 8 8 21 0 29l-51 51c-8 8-21 8-29 0l-40-40 80-80z"/>
<glyph glyph-name="android-delete" unicode="&#90;" d="M128 107c0-24 19-43 43-43l170 0c24 0 43 19 43 43l0 245-256 0z m288 309l-80 0-27 32-106 0-27-32-80 0 0-32 320 0z"/>
<glyph glyph-name="android-desktop" unicode="&#48;" d="M437 480l-362 0c-24 0-43-19-43-43l0-282c0-24 19-43 43-43l138 0-42-48 0-32 170 0 0 32-42 48 138 0c24 0 43 19 43 43l0 282c0 24-19 43-43 43z m0-288l-362 0 0 245 362 0z"/>
<glyph glyph-name="android-document" unicode="&#49;" d="M288 464l-152 0c-22 0-40-18-40-40l0-336c0-22 18-40 40-40l240 0c22 0 40 18 40 40l0 248z m-16-144l0 112 112-112z"/>
<glyph glyph-name="android-done" unicode="&#50;" d="M186 172l-90 91-32-31 122-122 262 261-32 31z"/>
<glyph glyph-name="android-done-all" unicode="&#51;" d="M388 372l-31 31-140-139 31-31z m93 31l-233-231-92 91-30-31 122-123 264 263z m-481-171l123-123 31 31-122 123z"/>
<glyph glyph-name="android-download" unicode="&#52;" d="M403 295c-14 69-74 121-147 121-58 0-108-33-133-81-60-6-107-57-107-119 0-66 54-120 120-120l260 0c55 0 100 45 100 100 0 53-41 96-93 99z m-179-51l0 76 64 0 0-76 68 0-100-100-100 100z"/>
<glyph glyph-name="android-drafts" unicode="&#53;" d="M480 310c0 15-7 29-20 37l-204 101-204-101c-11-8-20-22-20-37l0-203c0-24 19-43 43-43l362 0c24 0 43 19 43 43z m-224-102l-171 112 171 85 171-85z"/>
<glyph glyph-name="android-exit" unicode="&#54;" d="M215 179l30-30 107 107-107 107-30-30 56-56-207 0 0-42 206 0z m190 269l-298 0c-24 0-43-19-43-43l0-85 43 0 0 85 298 0 0-298-298 0 0 85-43 0 0-85c0-24 19-43 43-43l298 0c24 0 43 19 43 43l0 298c0 24-19 43-43 43z"/>
<glyph glyph-name="android-expand" unicode="&#55;" d="M397 115l-77 0 0-51 128 0 0 128-51 0z m0 282l0-77 51 0 0 128-128 0 0-51z m-282 0l77 0 0 51-128 0 0-128 51 0z m0-282l0 77-51 0 0-128 128 0 0 51z"/>
<glyph glyph-name="android-favorite" unicode="&#56;" d="M256 64l-30 27c-107 99-178 162-178 242 0 65 50 115 114 115 37 0 71-17 94-44 23 27 57 44 94 44 64 0 114-50 114-115 0-80-71-143-178-242z"/>
<glyph glyph-name="android-favorite-outline" unicode="&#57;" d="M350 448c-37 0-71-17-94-44-23 27-57 44-94 44-64 0-114-50-114-115 0-80 71-143 178-242l30-27 30 27c107 99 178 162 178 242 0 65-50 115-114 115z m-81-329l-4-4-9-8-9 8-4 4c-50 46-94 86-123 122-28 34-40 63-40 92 0 23 8 44 24 59 15 16 36 24 58 24 27 0 52-12 70-33l24-29 24 29c18 21 43 33 70 33 22 0 43-8 58-24 16-15 24-36 24-59 0-29-12-58-40-92-29-36-73-76-123-122z"/>
<glyph glyph-name="android-film" unicode="&#33;" d="M376 448l0-43-40 0 0 43-160 0 0-43-40 0 0 43-40 0 0-384 40 0 0 43 40 0 0-43 160 0 0 43 40 0 0-43 40 0 0 384z m-200-299l-40 0 0 43 40 0z m0 86l-40 0 0 42 40 0z m0 85l-40 0 0 43 40 0z m200-171l-40 0 0 43 40 0z m0 86l-40 0 0 42 40 0z m0 85l-40 0 0 43 40 0z"/>
<glyph glyph-name="android-folder" unicode="&#34;" d="M213 416l-138 0c-24 0-43-19-43-43l0-234c0-24 19-43 43-43l362 0c24 0 43 19 43 43l0 186c0 24-19 43-43 43l-181 0z"/>
<glyph glyph-name="android-folder-open" unicode="&#35;" d="M437 368l-181 0-43 48-138 0c-24 0-43-19-43-43l0-234c0-24 19-43 43-43l362 0c24 0 43 19 43 43l0 186c0 24-19 43-43 43z m11-229c0-6-5-11-11-11l-362 0c-6 0-11 5-11 11l0 197 373 0c6 0 11-5 11-11z"/>
<glyph glyph-name="android-funnel" unicode="&#36;" d="M208 112l96 0 0 48-96 0z m-176 288l0-48 448 0 0 48z m80-169l288 0 0 50-288 0z"/>
<glyph glyph-name="android-globe" unicode="&#37;" d="M256 464c-115 0-208-93-208-208 0-115 93-208 208-208 115 0 208 93 208 208 0 115-93 208-208 208z m-22-385c-39 5-76 22-104 51-34 34-52 78-52 126 0 43 15 83 42 116 1-9 3-18 2-25-1-23-4-38 10-58 6-8 7-19 10-28 2-9 13-14 20-19 14-11 28-24 43-34 10-6 16-9 13-22-2-10-3-16-8-24-1-3 6-20 9-23 7-7 15-14 23-21 12-10-2-24-8-39z m148 51c-26-26-58-43-92-49 4 12 13 23 21 29 8 6 16 16 20 25 4 8 9 15 14 23 7 11-18 27-26 31-18 7-31 18-47 29-11 8-34-4-47 1-17 8-32 21-47 33-16 12-15 25-15 43 12-1 30 3 38-7 3-3 11-17 17-12 5 4-3 20-5 24-5 12 12 16 20 24 11 11 34 27 33 34-2 8-24 29-37 26-2-1-18-18-22-21 0 6 1 11 1 17 0 4-7 7-7 10 1 6 17 16 22 21-3 2-13 10-16 9-7-3-15-5-22-8 0 2-1 5-1 7 14 6 29 11 45 13l14-5 10-12 10-10 9-3 14 13-4 9 0 8c27-4 53-14 76-29-5-1-9-1-14-2-2 1-5 2-7 3 7-14 13-28 20-42 8-15 24-31 27-46 3-19 1-36 3-57 2-21 23-45 23-45 0 0 10-3 19-2-8-31-24-59-47-82z"/>
<glyph glyph-name="android-hand" unicode="&#38;" d="M451 238c-15 15-36 16-51 2l-42-42c-10-11-24-11-31-2-5 6-3 25-2 36l21 172c2 16-9 30-24 32-16 2-30-10-32-25l-23-135c-1-3-3-4-4 1l-8 175c0 15-12 28-28 28-15 0-28-13-28-28l0-177c0-2-2-2-2 0l-25 138c-3 15-17 26-33 23-15-2-25-18-22-33l22-161c0-3-1-5-2-1l-33 88c-6 15-22 23-36 18-15-5-22-22-17-37l58-189c0-1 1-2 1-3l0-1c0 0 0 0 0 0 16-49 63-85 117-85 36 0 72 12 100 34 0 0 0 0 0 0 30 18 126 121 126 121 14 15 12 37-2 51z"/>
<glyph glyph-name="android-hangout" unicode="&#39;" d="M256 464c-97 0-176-77-176-172 0-96 79-173 176-173l0-71c100 48 176 152 176 244 0 95-79 172-176 172z m-10-183l-21-40-31 0 21 40-31 0 0 61 62 0z m82 0l-20-40-31 0 20 40-31 0 0 61 62 0z"/>
<glyph glyph-name="android-happy" unicode="&#40;" d="M256 464c-115 0-208-94-208-208 0-114 93-208 208-208 115 0 208 94 208 208 0 114-94 208-208 208z m0-374c-92 0-166 74-166 166 0 92 74 166 166 166 92 0 166-74 166-166 0-92-74-166-166-166z m73 187c17 0 31 13 31 31 0 18-14 31-31 31-18 0-31-13-31-31 0-18 13-31 31-31z m-146 0c18 0 31 13 31 31 0 18-13 31-31 31-17 0-31-13-31-31 0-18 14-31 31-31z m73-135c49 0 89 30 106 72l-212 0c17-42 57-72 106-72z"/>
<glyph glyph-name="android-home" unicode="&#41;" d="M208 64l0 128 96 0 0-128 98 0 0 192 62 0-208 192-208-192 62 0 0-192z"/>
<glyph glyph-name="android-image" unicode="&#42;" d="M448 107l0 298c0 24-19 43-43 43l-298 0c-24 0-43-19-43-43l0-298c0-24 19-43 43-43l298 0c24 0 43 19 43 43z m-267 117l54-64 74 96 96-128-298 0z"/>
<glyph glyph-name="android-laptop" unicode="&#43;" d="M437 96c24 0 43 19 43 43l0 266c0 24-19 43-43 43l-362 0c-24 0-43-19-43-43l0-266c0-24 19-43 43-43l-75 0c0-23 64-32 96-32l320 0c32 0 96 9 96 32z m-362 309l362 0 0-272-362 0z m181-328c-12 0-21 10-21 22 0 11 9 21 21 21 12 0 21-10 21-21 0-12-9-22-21-22z"/>
<glyph glyph-name="android-list" unicode="&#44;" d="M408 448l-304 0c-22 0-40-18-40-40l0-304c0-22 18-40 40-40l304 0c22 0 40 18 40 40l0 304c0 22-18 40-40 40z m-104-304l-160 0 0 48 160 0z m64 88l-224 0 0 48 224 0z m0 88l-224 0 0 48 224 0z"/>
<glyph glyph-name="android-locate" unicode="&#45;" d="M256 336c-44 0-80-36-80-80 0-44 36-80 80-80 44 0 80 36 80 80 0 44-36 80-80 80z m191-59c-10 89-81 160-170 170l0 33-42 0 0-33c-89-10-160-81-170-170l-33 0 0-42 33 0c10-89 81-160 170-170l0-33 42 0 0 33c89 10 160 81 170 170l33 0 0 42z m-191-170c-82 0-149 67-149 149 0 82 67 149 149 149 82 0 149-67 149-149 0-82-67-149-149-149z"/>
<glyph glyph-name="android-lock" unicode="&#46;" d="M376 326l-20 0 0 40c0 55-45 100-100 100-55 0-100-45-100-100l0-40-20 0c-22 0-40-18-40-40l0-200c0-22 18-40 40-40l240 0c22 0 40 18 40 40l0 200c0 22-18 40-40 40z m-120-182c-22 0-40 18-40 40 0 22 18 40 40 40 22 0 40-18 40-40 0-22-18-40-40-40z m62 182l-124 0 0 40c0 34 28 62 62 62 34 0 62-28 62-62z"/>
<glyph glyph-name="android-mail" unicode="&#47;" d="M437 432l-362 0c-24 0-43-19-43-43l0-266c0-24 19-43 43-43l362 0c24 0 43 19 43 43l0 266c0 24-19 43-43 43z m-5-91l-176-117-176 117 0 43 176-117 176 117z"/>
<glyph glyph-name="android-map" unicode="&#58;" d="M437 448c-2 0-4-1-9-3-5-2-108-42-108-42l-128 45-121-41c-4-1-7-5-7-10l0-322c0-7 4-11 11-11 1 0 6 2 9 3 2 1 108 42 108 42l128-45 121 41c4 1 7 5 7 10l0 322c0 7-4 11-11 11z m-117-341l-128 44 0 254 128-44z"/>
<glyph glyph-name="android-menu" unicode="&#59;" d="M64 128l384 0 0 43-384 0z m0 107l384 0 0 42-384 0z m0 149l0-43 384 0 0 43z"/>
<glyph glyph-name="android-microphone" unicode="&#60;" d="M256 192c38 0 69 31 69 69l0 150c0 38-31 69-69 69-38 0-69-31-69-69l0-150c0-38 31-69 69-69z m121 75c0-68-58-116-121-116-63 0-121 48-121 116l-39 0c0-77 62-143 137-153l0-82 46 0 0 82c75 11 137 76 137 153z"/>
<glyph glyph-name="android-microphone-off" unicode="&#61;" d="M368 157l-27 27-9 9-5 5-140 140 0 0-111 110-24-24 135-134 0-29c0-38 31-69 69-69 9 0 17 2 24 5l33-33c-17-9-37-14-57-14-63 0-121 49-121 117l-39 0c0-77 62-143 137-153l0-82 46 0 0 82c22 3 43 11 62 23l95-95 24 24-34 33-58 58 58-58z m-43 104l0 150c0 38-31 69-69 69-38 0-69-31-69-69l0-25 137-137c1 4 1 8 1 12z m91 6l-39 0c0-20-5-40-14-56l27-28c17 24 26 53 26 84z m44-201l-34 33 34-33z"/>
<glyph glyph-name="android-more-horizontal" unicode="&#62;" d="M136 296c-22 0-40-18-40-40 0-22 18-40 40-40 22 0 40 18 40 40 0 22-18 40-40 40z m240 0c-22 0-40-18-40-40 0-22 18-40 40-40 22 0 40 18 40 40 0 22-18 40-40 40z m-120 0c-22 0-40-18-40-40 0-22 18-40 40-40 22 0 40 18 40 40 0 22-18 40-40 40z"/>
<glyph glyph-name="android-more-vertical" unicode="&#63;" d="M296 376c0 22-18 40-40 40-22 0-40-18-40-40 0-22 18-40 40-40 22 0 40 18 40 40z m0-240c0 22-18 40-40 40-22 0-40-18-40-40 0-22 18-40 40-40 22 0 40 18 40 40z m0 120c0 22-18 40-40 40-22 0-40-18-40-40 0-22 18-40 40-40 22 0 40 18 40 40z"/>
<glyph glyph-name="android-navigate" unicode="&#64;" d="M256 448l-160-369 15-15 145 64 145-64 15 15z"/>
<glyph glyph-name="android-notifications" unicode="&#91;" d="M256 48c23 0 41 19 41 42l-82 0c0-23 18-42 41-42z m135 125l0 114c0 64-45 118-104 131l0 15c0 17-13 31-31 31-18 0-31-14-31-31l0-15c-59-13-104-67-104-131l0-114-41-42 0-21 352 0 0 21z"/>
<glyph glyph-name="android-notifications-none" unicode="&#93;" d="M257 392c7 0 24-5 24-5 46-10 78-52 78-100l0-127 9-10 8-8-240 0 8 8 9 10 0 127c0 48 33 90 78 100 0 0 18 5 24 5m1 72c-18 0-31-14-31-31l0-15c-59-13-104-67-104-131l0-114-41-42 0-21 352 0 0 21-41 42 0 114c0 64-45 118-104 131l0 15c0 17-13 31-31 31z m41-374l-82 0c0-23 18-42 41-42 23 0 41 19 41 42z"/>
<glyph glyph-name="android-notifications-off" unicode="&#94;" d="M256 48c23 0 41 19 41 42l-82 0c0-23 18-42 41-42z m-125 357l0 0-33 33-24-24 63-64c-10-19-16-40-16-63l0-115-41-41 0-21 298 0 36-36 24 24-12 12 0 0z m260-118c0 63-45 118-104 131l0 15c0 17-13 31-31 31-18 0-31-14-31-31l0-15c-15-3-29-9-42-18l208-207z"/>
<glyph glyph-name="android-open" unicode="&#95;" d="M405 107l-298 0 0 298 133 0 0 43-133 0c-24 0-43-19-43-43l0-298c0-24 19-43 43-43l298 0c24 0 43 19 43 43l0 133-43 0z m-117 341l0-43 87 0-215-215 30-30 215 215 0-87 43 0 0 160z"/>
<glyph glyph-name="android-options" unicode="&#96;" d="M32 128l272 0 0-32-272 0z m368 0l80 0 0-32-80 0z m-16-64c0-17-14-32-32-32-18 0-32 15-32 32l0 95c0 18 14 33 32 33 18 0 32-15 32-33z m-352 208l80 0 0-32-80 0z m176 0l272 0 0-32-272 0z m-16-64c0-17-14-32-32-32-18 0-32 15-32 32l0 95c0 18 14 33 32 33 18 0 32-15 32-33z m-160 208l272 0 0-32-272 0z m368 0l80 0 0-32-80 0z m-16-64c0-17-14-32-32-32-18 0-32 15-32 32l0 95c0 18 14 33 32 33 18 0 32-15 32-33z"/>
<glyph glyph-name="android-people" unicode="&#123;" d="M337 280c34 0 62 27 62 60 0 33-28 60-62 60-33 0-61-27-61-60 0-33 28-60 61-60z m-162 0c33 0 61 27 61 60 0 33-28 60-61 60-34 0-62-27-62-60 0-33 28-60 62-60z m0-44c-48 0-143-23-143-70l0-54 288 0 0 54c0 47-98 70-145 70z m162-11c-6 0-10 0-17-1 23-17 32-28 32-58l0-54 128 0 0 54c0 47-95 59-143 59z"/>
<glyph glyph-name="android-person" unicode="&#124;" d="M256 256c53 0 96 43 96 96 0 53-43 96-96 96-53 0-96-43-96-96 0-53 43-96 96-96z m0-48c-64 0-192-32-192-96l0-48 384 0 0 48c0 64-128 96-192 96z"/>
<glyph glyph-name="android-person-add" unicode="&#125;" d="M304 256c53 0 96 43 96 96 0 53-43 96-96 96-53 0-96-43-96-96 0-53 43-96 96-96z m0-48c-64 0-192-32-192-96l0-48 384 0 0 48c0 64-128 96-192 96z m-192 80l0 64-32 0 0-64-64 0 0-32 64 0 0-64 32 0 0 64 64 0 0 32z"/>
<glyph glyph-name="android-phone-landscape" unicode="&#126;" d="M480 153l0 206c0 22-18 41-41 41l-366 0c-23 0-41-19-41-41l0-206c0-22 18-41 41-41l366 0c23 0 41 19 41 41z m-368-5l0 216 288 0 0-216z"/>
<glyph glyph-name="android-phone-portrait" unicode="&#92;" d="M359 480l-206 0c-22 0-41-18-41-41l0-366c0-23 19-41 41-41l206 0c22 0 41 18 41 41l0 366c0 23-19 41-41 41z m5-368l-216 0 0 288 216 0z"/>
<glyph glyph-name="android-pin" unicode="&#57344;" d="M256 480c-88 0-160-71-160-157 0-117 160-291 160-291 0 0 160 174 160 291 0 86-72 157-160 157z m0-213c-32 0-57 25-57 56 0 32 25 56 57 56 32 0 57-24 57-56 0-31-25-56-57-56z"/>
<glyph glyph-name="android-plane" unicode="&#57345;" d="M448 176l0 40-160 104 0 113c0 17-15 31-32 31-17 0-32-14-32-31l0-113-160-104 0-40 160 48 0-114-48-31 0-31 80 16 80-16 0 31-48 31 0 114z"/>
<glyph glyph-name="android-playstore" unicode="&#57346;" d="M464 360l-104 0c0 57-47 104-104 104-57 0-104-47-104-104l-104 0c19-216 13-312 13-312l390 0c0 0-6 98 13 312z m-208 78c43 0 78-35 78-78l-156 0c0 43 35 78 78 78z m-52-324l0 169 143-84z"/>
<glyph glyph-name="android-print" unicode="&#57347;" d="M400 352l-288 0c-35 0-64-29-64-64l0-139 80 0 0-85 256 0 0 85 80 0 0 139c0 35-29 64-64 64z m-48-256l-192 0 0 128 192 0z m32 352l-256 0 0-80 256 0z"/>
<glyph glyph-name="android-radio-button-off" unicode="&#57348;" d="M256 464c-114 0-208-94-208-208 0-114 94-208 208-208 114 0 208 94 208 208 0 114-94 208-208 208z m0-374c-92 0-166 74-166 166 0 92 74 166 166 166 92 0 166-74 166-166 0-92-74-166-166-166z"/>
<glyph glyph-name="android-radio-button-on" unicode="&#57349;" d="M256 360c-57 0-104-47-104-104 0-57 47-104 104-104 57 0 104 47 104 104 0 57-47 104-104 104z m0 104c-114 0-208-94-208-208 0-114 94-208 208-208 114 0 208 94 208 208 0 114-94 208-208 208z m0-374c-92 0-166 74-166 166 0 92 74 166 166 166 92 0 166-74 166-166 0-92-74-166-166-166z"/>
<glyph glyph-name="android-refresh" unicode="&#57350;" d="M256 124c-73 0-132 59-132 132 0 73 59 132 132 132 36 0 69-15 92-40l-70-70 154 0 0 154-52-52c-32 32-76 52-124 52-97 0-176-79-176-176 0-97 78-176 176-176 81 0 148 54 169 128l-46 0c-19-50-67-84-123-84z"/>
<glyph glyph-name="android-remove" unicode="&#57351;" d="M96 277l320 0 0-42-320 0z"/>
<glyph glyph-name="android-remove-circle" unicode="&#57352;" d="M256 464c-115 0-208-93-208-208 0-115 93-208 208-208 115 0 208 93 208 208 0 115-93 208-208 208z m107-229l-214 0 0 42 214 0z"/>
<glyph glyph-name="android-restaurant" unicode="&#57353;" d="M165 232l62 60-153 148c-34-32-34-86 0-119z m147 38c34-15 81-4 114 30 42 40 50 98 18 129-32 31-91 23-133-17-34-34-45-80-30-111-48-48-212-207-212-207l31-30 149 146 150-146 31 30-150 145z"/>
<glyph glyph-name="android-sad" unicode="&#57354;" d="M256 224c-45 0-84-26-102-64l204 0c-18 38-57 64-102 64z m0 240c-115 0-208-94-208-208 0-114 93-208 208-208 115 0 208 94 208 208 0 114-94 208-208 208z m0-374c-92 0-166 74-166 166 0 92 74 166 166 166 92 0 166-74 166-166 0-92-74-166-166-166z m73 187c17 0 31 13 31 31 0 18-14 31-31 31-18 0-31-13-31-31 0-18 13-31 31-31z m-146 0c18 0 31 13 31 31 0 18-13 31-31 31-17 0-31-13-31-31 0-18 14-31 31-31z"/>
<glyph glyph-name="android-search" unicode="&#57355;" d="M338 207l-18 0-7 5c21 25 34 57 34 93 0 79-63 143-142 143-78 0-141-64-141-143 0-79 63-142 142-142 35 0 68 13 93 34l7-6 0-17 109-110 33 33z m-132 0c-54 0-98 44-98 98 0 55 44 99 98 99 55 0 99-44 99-99 0-54-44-98-99-98z"/>
<glyph glyph-name="android-send" unicode="&#57356;" d="M48 64l416 192-416 192 0-149 298-43-298-43z"/>
<glyph glyph-name="android-settings" unicode="&#57357;" d="M414 235c1 6 1 14 1 21 0 7-1 14-1 21l45 34c4 3 5 8 2 14l-43 71c-2 5-8 7-13 5l-53-21c-10 8-23 15-36 21l-7 55c-1 4-6 8-11 8l-85 0c-5 0-10-4-11-8l-8-55c-13-6-25-13-36-21l-54 21c-5 2-10 0-12-5l-43-71c-2-5-1-11 2-14l46-34c0-7-1-14-1-21 0-7 1-14 1-21l-45-34c-4-3-5-8-2-14l43-71c2-5 8-7 12-5l54 21c10-8 23-15 36-21l8-55c1-5 6-8 11-8l85 0c5 0 10 4 11 8l8 55c13 6 25 13 36 21l54-21c5-2 10 0 12 5l43 71c2 5 1 11-2 14z m-159-52c-41 0-74 32-74 73 0 41 33 73 74 73 42 0 75-32 75-73 0-41-33-73-75-73z"/>
<glyph glyph-name="android-share" unicode="&#57358;" d="M448 264l-160 152 0-85c-149-22-203-128-224-235 53 75 117 109 224 109l0-88z"/>
<glyph glyph-name="android-share-alt" unicode="&#57359;" d="M384 168c-16 0-31-6-42-16l-153 88c1 5 2 10 2 15 0 5-1 10-2 15l151 87c12-10 27-17 44-17 35 0 64 29 64 64 0 35-29 64-64 64-35 0-64-29-64-64 0-5 1-10 2-15l-151-87c-12 10-27 17-44 17-35 0-63-29-63-64 0-35 29-64 64-64 17 0 32 6 44 17l152-88c-1-5-2-9-2-14 0-34 28-62 62-62 34 0 62 28 62 62 0 34-28 62-62 62z"/>
<glyph glyph-name="android-star" unicode="&#57360;" d="M256 139l125-75-33 142 110 96-145 12-57 134-57-134-145-12 110-96-33-142z"/>
<glyph glyph-name="android-star-half" unicode="&#57361;" d="M458 302l-145 12-57 134-57-134-145-12 110-96-33-142 125 75 125-75-33 142z m-185-135l-17 10 0 189 27-64 8-18 19-2 70-6-53-46-15-12 5-19 16-68z"/>
<glyph glyph-name="android-star-outline" unicode="&#57362;" d="M458 302l-145 12-57 134-57-134-145-12 110-96-33-142 125 75 125-75-33 142z m-185-135l-17 10-17-10-60-36 16 68 5 19-15 12-53 46 70 6 19 2 8 18 27 64 27-64 8-18 19-2 70-6-53-46-15-12 5-19 16-68z"/>
<glyph glyph-name="android-stopwatch" unicode="&#57363;" d="M232 205l48 0 0 131-48 0z m176 137l30 31-33 33-31-30c-33 25-74 40-118 40-106 0-192-86-192-192 0-106 86-192 192-192 106 0 192 86 192 192 0 44-15 85-40 118z m-46-224c-28-28-66-44-106-44-40 0-78 16-106 44-28 28-44 66-44 106 0 40 16 78 44 106 28 28 66 44 106 44 40 0 78-16 106-44 28-28 44-66 44-106 0-40-16-78-44-106z m-170 362l128 0 0-48-128 0z"/>
<glyph glyph-name="android-subway" unicode="&#57364;" d="M256 464c-94 0-176-11-176-85l0-214c0-41 33-74 75-74l-27-27 0-16 256 0 0 16-27 27c42 0 75 33 75 74l0 214c0 74-82 85-176 85z m-96-336c-18 0-32 14-32 32 0 18 14 32 32 32 18 0 32-14 32-32 0-18-14-32-32-32z m80 144l-112 0 0 96 112 0z m112-144c-18 0-32 14-32 32 0 18 14 32 32 32 18 0 32-14 32-32 0-18-14-32-32-32z m32 144l-112 0 0 96 112 0z"/>
<glyph glyph-name="android-sunny" unicode="&#57365;" d="M256 352c26 0 50-10 68-28 18-18 28-43 28-68 0-26-10-50-28-68-18-18-42-28-68-28-25 0-50 10-68 28-18 18-28 42-28 68 0 25 10 50 28 68 18 18 43 28 68 28m21 128l-42 0 0-64 42 0z m129-44l-38-38 30-30 38 38z m-300 0l-30-30 38-38 30 30z m150-52c-70 0-128-58-128-128 0-70 58-128 128-128 70 0 128 58 128 128 0 70-58 128-128 128z m224-107l-64 0 0-42 64 0z m-384 0l-64 0 0-42 64 0z m302-133l-30-30 38-38 30 30z m-284 0l-38-38 30-30 38 38z m163-48l-42 0 0-64c6 0 42 0 42 0z"/>
<glyph glyph-name="android-sync" unicode="&#57366;" d="M256 419l0 61-80-81 80-82 0 61c66 0 120-55 120-122 0-20-5-40-14-57l29-30c16 26 25 55 25 87 0 90-72 163-160 163z m0-285c-66 0-120 55-120 122 0 20 5 40 14 57l-29 30c-16-25-25-55-25-87 0-90 72-163 160-163l0-61 80 81-80 82z"/>
<glyph glyph-name="android-textsms" unicode="&#57367;" d="M408 448l-312 0c-22 0-32-18-32-40l0-344 64 64 280 0c22 0 40 18 40 40l0 240c0 22-18 40-40 40z m-210-178l-38 0 0 40 38 0z m77 0l-38 0 0 40 38 0z m77 0l-38 0 0 40 38 0z"/>
<glyph glyph-name="android-time" unicode="&#57368;" d="M256 469c-118 0-213-96-213-213 0-117 95-213 213-213 118 0 213 96 213 213 0 117-96 213-213 213z m0-383c-94 0-170 76-170 170 0 94 76 170 170 170 94 0 170-76 170-170 0-94-76-170-170-170z m11 276l-32 0 0-127 112-67 16 26-96 57z"/>
<glyph glyph-name="android-train" unicode="&#57369;" d="M80 165c0-41 33-74 75-74l-27-27 0-16 256 0 0 16-27 27c42 0 75 33 75 74l0 214c0 74-82 85-176 85-94 0-176-11-176-85z m176-29c-22 0-40 18-40 40 0 22 18 40 40 40 22 0 40-18 40-40 0-22-18-40-40-40z m128 152l-256 0 0 96 256 0z"/>
<glyph glyph-name="android-unlock" unicode="&#57370;" d="M376 326l-20 0 0 40c0 55-45 100-100 100-55 0-100-45-100-100l38 0c0 34 28 62 62 62 34 0 62-28 62-62l0 0 0-40-182 0c-22 0-40-18-40-40l0-200c0-22 18-40 40-40l240 0c22 0 40 18 40 40l0 200c0 22-18 40-40 40z m-120-182c-22 0-40 18-40 40 0 22 18 40 40 40 22 0 40-18 40-40 0-22-18-40-40-40z"/>
<glyph glyph-name="android-upload" unicode="&#57371;" d="M403 295c-14 69-74 121-147 121-58 0-108-33-133-81-60-6-107-57-107-119 0-66 54-120 120-120l260 0c55 0 100 45 100 100 0 53-41 96-93 99z m-115-59l0-76-64 0 0 76-68 0 100 100 100-100z"/>
<glyph glyph-name="android-volume-down" unicode="&#57372;" d="M64 320l0-128 85 0 107-112 0 352-107-112z m288-64c0 38-21 72-53 89l0-177c32 16 53 50 53 88z"/>
<glyph glyph-name="android-volume-mute" unicode="&#57373;" d="M64 320l0-128 85 0 107-112 0 352-107-112z"/>
<glyph glyph-name="android-volume-off" unicode="&#57374;" d="M406 256c0-23-5-44-14-64l32-32c15 29 24 61 24 96 0 93-64 172-149 192l0-45c62-19 107-78 107-147z m-150 176l-51-53 51-51z m165-317l-330 330-24-24 91-91-9-10-85 0 0-128 85 0 107-112 0 152 95-95c-15-12-33-22-52-28l0-45c31 7 59 22 82 43l40-40 24 24-24 24z m-69 141c0 38-21 72-53 89l0-60 51-51c1 7 2 15 2 22z"/>
<glyph glyph-name="android-volume-up" unicode="&#57375;" d="M64 320l0-128 85 0 107-112 0 352-107-112z m288-64c0 38-21 72-53 89l0-177c32 16 53 50 53 88z m-53 192l0-45c62-19 106-78 106-147 0-69-44-128-106-147l0-45c85 20 149 99 149 192 0 93-64 172-149 192z"/>
<glyph glyph-name="android-walk" unicode="&#57376;" d="M288 400c22 0 40 18 40 40 0 22-18 40-40 40-22 0-40-18-40-40 0-22 18-40 40-40z m0-120l104 0 0 40-72 0-45 69c-7 12-18 18-31 18-3 0-9 0-13-1l-111-38 0-112 40 0 0 80 41 16-81-320 40 0 57 164 50-68 0-96 38 0 0 128-57 96 20 62z"/>
<glyph glyph-name="android-warning" unicode="&#57377;" d="M32 48l448 0-224 416z m248 64l-48 0 0 48 48 0z m0 80l-48 0 0 96 48 0z"/>
<glyph glyph-name="android-watch" unicode="&#57378;" d="M416 256c0 51-24 96-61 125l-19 115-160 0-19-115c-37-29-61-74-61-125 0-51 24-96 61-125l19-115 160 0 19 115c37 29 61 74 61 125z m-280 0c0 66 54 120 120 120 66 0 120-54 120-120 0-66-54-120-120-120-66 0-120 54-120 120z"/>
<glyph glyph-name="android-wifi" unicode="&#57379;" d="M256 283c-23 0-42-18-42-41 0-23 19-41 42-41 23 0 42 18 42 41 0 23-19 41-42 41z m125-41c0 68-56 124-125 124-69 0-125-56-125-124 0-45 25-85 63-107l20 36c-25 14-41 40-41 71 0 45 37 82 83 82 46 0 83-37 83-82 0-31-16-57-41-71l20-36c38 22 63 62 63 107z m-125 206c-114 0-208-93-208-206 0-76 42-142 104-178l21 36c-50 29-83 81-83 142 0 91 74 165 166 165 92 0 166-74 166-165 0-61-33-114-83-142l21-36c62 36 104 102 104 178 0 113-94 206-208 206z"/>
<glyph glyph-name="aperture" unicode="&#57380;" d="M256 480c-124 0-224-100-224-224 0-124 100-224 224-224 124 0 224 100 224 224 0 124-100 224-224 224z m136-360c-36-36-85-56-136-56-51 0-99 20-136 56-36 36-56 85-56 136 0 51 20 99 56 136 37 36 85 56 136 56 51 0 100-20 136-56 36-37 56-85 56-136 0-51-20-100-56-136z m-192 286c-41-15-73-46-91-86l147 0z m213-182c2 10 3 21 3 32 0 37-12 70-33 97l-72-129z m-53 154c-28 24-64 38-104 38-8 0-16-1-23-2l78-126z m-261-90c-2-10-3-21-3-32 0-37 12-70 33-97l72 129z m213-182c41 15 73 46 91 86l-147 0z m-160 28c28-24 64-38 104-38 8 0 16 1 23 2l-78 126z"/>
<glyph glyph-name="archive" unicode="&#57381;" d="M256 204l128 116-80 0 0 96-96 0 0-96-80 0z m209 11l-71 55-42 0 62-62-51 0c-2 0-4-1-5-3l-18-45-168 0-18 45c-1 2-3 3-6 3l-50 0 62 62-42 0-72-55c-10-6-15-19-14-32l9-67c2-13 10-20 28-20l374 0c19 0 26 8 28 20l9 67c1 13-4 26-15 32z"/>
<glyph glyph-name="arrow-down-a" unicode="&#57382;" d="M257 63l192 192-112 0 0 192-160 0 0-192-112 0z"/>
<glyph glyph-name="arrow-down-b" unicode="&#57383;" d="M99 327l2-2 136-156c4-6 11-9 19-9 8 0 15 3 19 9l136 156 2 2c2 3 3 6 3 9 0 9-7 16-17 16l-286 0c-10 0-17-7-17-16 0-3 1-6 3-9z"/>
<glyph glyph-name="arrow-down-c" unicode="&#57384;" d="M384 189l-105-100c-6-6-14-9-23-9-8 0-16 3-22 9l-106 100c-12 12-12 32 0 43 13 12 33 12 46 0l50-48 0 217c0 17 14 31 32 31 18 0 32-14 32-31l0-217 50 48c13 12 33 12 46 0 12-11 12-31 0-43z"/>
<glyph glyph-name="arrow-expand" unicode="&#57385;" d="M274 302l64 64-50 50 128 0 0-128-50 50-64-64z m0-92l64-64-50-50 128 0 0 128-50-50-64 64z m-36 0l-64-64 50-50-128 0 0 128 50-50 64 64z m0 92l-64 64 50 50-128 0 0-128 50 50 64-64z"/>
<glyph glyph-name="arrow-graph-down-left" unicode="&#57386;" d="M32 128l0 160 61-61 131 141 107-112 149 128-149-203-107 107-94-98 62-62z"/>
<glyph glyph-name="arrow-graph-down-right" unicode="&#57387;" d="M320 128l62 62-94 98-107-107-149 203 149-128 107 112 131-141 61 61 0-160z"/>
<glyph glyph-name="arrow-graph-up-left" unicode="&#57388;" d="M192 384l-62-62 94-98 107 107 149-203-149 128-107-112-131 141-61-61 0 160z"/>
<glyph glyph-name="arrow-graph-up-right" unicode="&#57389;" d="M320 384l62-62-94-98-107 107-149-203 149 128 107-112 131 141 61-61 0 160z"/>
<glyph glyph-name="arrow-left-a" unicode="&#57390;" d="M65 255l192-192 0 112 192 0 0 160-192 0 0 112z"/>
<glyph glyph-name="arrow-left-b" unicode="&#57391;" d="M327 413l-2-2-156-136c-6-4-9-11-9-19 0-8 4-15 9-19l156-136 3-2c2-2 5-3 8-3 9 0 16 7 16 17l0 286c0 10-7 17-16 17-3 0-6-1-9-3z"/>
<glyph glyph-name="arrow-left-c" unicode="&#57392;" d="M189 384l-100-105c-6-6-9-14-9-23 0-9 3-16 9-22l100-106c12-12 32-12 44 0 11 13 11 33 0 46l-49 50 217 0c17 0 31 14 31 32 0 18-14 32-31 32l-217 0 49 50c12 13 12 33 0 46-12 12-32 12-44 0z"/>
<glyph glyph-name="arrow-move" unicode="&#57393;" d="M480 256l-96 96 0-76-108 0 0 108 76 0-96 96-96-96 76 0 0-108-108 0 0 76-96-96 96-96 0 76 108 0 0-108-76 0 96-96 96 96-76 0-1 108 109 0 0-76z"/>
<glyph glyph-name="arrow-resize" unicode="&#57394;" d="M288 416l50-50-64-64-128-128-50 50 0-128 128 0-50 50 183 183 9 9 50-50 0 128z"/>
<glyph glyph-name="arrow-return-left" unicode="&#57395;" d="M192 416l0-64 248 0c4 0 8-4 8-8l0-240c0-4-4-8-8-8l-304 0c-4 0-8 4-8 8l0 48c0 4 4 8 8 8l248 0 0 128-192 0 0-64-128 96z"/>
<glyph glyph-name="arrow-return-right" unicode="&#57396;" d="M448 320l-128-96 0 64-192 0 0-128 248 0c4 0 8-4 8-8l0-48c0-4-4-8-8-8l-304 0c-4 0-8 4-8 8l0 240c0 4 4 8 8 8l248 0 0 64z"/>
<glyph glyph-name="arrow-right-a" unicode="&#57397;" d="M449 255l-192 192 0-112-192 0 0-160 192 0 0-112z"/>
<glyph glyph-name="arrow-right-b" unicode="&#57398;" d="M185 99l2 2 156 136c6 4 9 11 9 19 0 8-3 14-9 19l-156 136-2 2c-3 2-6 3-9 3-9 0-16-7-16-17l0-286c0-10 7-17 16-17 3 0 6 1 9 3z"/>
<glyph glyph-name="arrow-right-c" unicode="&#57399;" d="M323 384l100-105c6-6 9-14 9-23 0-9-3-16-9-22l-100-106c-12-12-32-12-43 0-12 13-12 33 0 46l48 50-217 0c-17 0-31 14-31 32 0 18 14 32 31 32l217 0-49 50c-11 13-11 33 0 46 12 12 32 12 44 0z"/>
<glyph glyph-name="arrow-shrink" unicode="&#57400;" d="M448 420l-82-82 50-50-128 0 0 128 50-50 82 82z m0-328l-82 82 50 50-128 0 0-128 50 50 82-82z m-384 0l82 82-50 50 128 0 0-128-50 50-82-82z m0 328l82-82-50-50 128 0 0 128-50-50-82 82z"/>
<glyph glyph-name="arrow-swap" unicode="&#57401;" d="M64 184l0-48c0-4 4-8 8-8l248 0 0-64 128 96-128 96 0-64-248 0c-4 0-8-4-8-8z m384 144l0 48c0 4-4 8-8 8l-248 0 0 64-128-96 128-96 0 64 248 0c4 0 8 4 8 8z"/>
<glyph glyph-name="arrow-up-a" unicode="&#57402;" d="M257 447l-192-192 112 0 0-192 160 0 0 192 112 0z"/>
<glyph glyph-name="arrow-up-b" unicode="&#57403;" d="M413 185l-2 2-136 156c-4 6-11 9-19 9-8 0-14-4-19-9l-136-156-2-3c-2-2-3-5-3-8 0-9 7-16 17-16l286 0c10 0 17 7 17 16 0 3-1 6-3 9z"/>
<glyph glyph-name="arrow-up-c" unicode="&#57404;" d="M128 323l105 100c6 6 14 9 23 9 9 0 16-3 22-9l106-100c12-12 12-32 0-44-13-11-33-11-46 0l-50 49 0-217c0-17-14-31-32-31-18 0-32 14-32 31l0 217-50-49c-13-12-33-12-46 0-12 12-12 32 0 44z"/>
<glyph glyph-name="asterisk" unicode="&#57405;" d="M480 288l-187-7 109 167-60 32-86-176-86 176-60-32 109-167-187 7 0-64 186 10-104-170 56-32 86 176 86-176 56 32-104 170 186-10z"/>
<glyph glyph-name="at" unicode="&#57406;" d="M454 105c-24-25-52-44-85-56-33-11-68-17-104-17-35 0-67 5-96 17-28 11-53 26-73 46-20 19-36 43-47 70-11 28-17 58-17 90 0 33 6 62 18 90 13 27 29 51 50 71 21 20 46 35 74 47 28 11 59 17 91 17 27 0 54-4 80-12 26-8 49-20 69-36 20-16 36-36 48-60 12-24 18-53 18-85 0-24-3-46-10-64-7-19-16-34-27-46-11-13-24-22-38-28-14-7-30-10-45-10-17 0-30 4-39 12-10 7-15 17-15 29l-3 0c-6-10-15-19-28-28-13-8-28-13-46-13-28 0-49 9-64 27-15 18-23 42-23 71 0 17 3 33 9 50 6 16 14 31 24 44 11 13 23 23 38 31 14 8 31 11 49 11 15 0 28-3 39-9 10-7 17-14 20-24l1 0 5 24 54 0-24-113c-1-6-2-12-3-19-2-7-2-13-2-19 0-7 1-13 4-18 2-4 7-7 15-7 16 0 29 9 39 26 11 17 16 39 16 68 0 24-4 45-12 64-8 19-20 34-34 47-14 12-32 22-51 28-20 7-42 10-66 10-25 0-49-4-70-13-21-9-39-22-54-38-15-16-27-34-35-56-9-21-13-44-13-69 0-27 4-51 13-72 9-21 21-39 37-54 16-16 35-27 57-35 21-8 46-12 72-12 33 0 61 5 85 16 24 10 45 25 65 43z m-191 219c-9 0-18-3-25-8-8-6-14-13-19-22-5-8-9-18-11-28-3-11-4-21-4-31 0-4 0-9 1-15 1-5 3-10 6-15 3-5 7-8 12-11 5-3 11-5 20-5 11 0 20 3 28 8 7 6 14 12 18 21 5 8 9 17 11 26 2 10 3 19 3 27 0 6 0 13-1 19-2 6-4 12-7 17-3 5-7 9-12 12-5 3-12 5-20 5z"/>
<glyph glyph-name="backspace" unicode="&#57407;" d="M499 418c-9 9-20 14-33 14l-298 0c-24 0-44-9-58-28l-110-148 110-146 1-1 0 0c7-9 14-16 23-20 10-6 21-9 34-9l298 0c26 0 46 22 46 49l0 256c0 13-4 25-13 33z m-86-238c2-2 3-4 3-6 0-2-1-4-3-6l-21-22c-2-1-4-2-6-2-2 0-4 1-6 2l-76 77-76-77c-2-1-4-2-6-2-2 0-4 1-6 2l-21 22c-2 2-3 4-3 6 0 2 1 4 3 6l76 76-77 76c-3 3-3 9 0 12l22 22c2 1 4 2 6 2 2 0 4-1 6-2l76-76 76 76c2 1 4 2 6 2 2 0 4-1 6-2l22-22c3-3 3-9 0-12l-77-76z"/>
<glyph glyph-name="backspace-outline" unicode="&#57408;" d="M413 180c2-2 3-4 3-6 0-2-1-4-3-6l-21-22c-2-1-4-2-6-2-2 0-4 1-6 2l-76 77-76-77c-2-1-4-2-6-2-2 0-4 1-6 2l-21 22c-2 2-3 4-3 6 0 2 1 4 3 6l76 76-77 76c-3 3-3 9 0 12l22 22c2 1 4 2 6 2 2 0 4-1 6-2l76-76 76 76c2 1 4 2 6 2 2 0 4-1 6-2l22-22c3-3 3-9 0-12l-77-76z m86 238c-9 9-20 14-33 14l-298 0c-24 0-44-9-58-28l-110-148 110-146 1-1 0 0c7-9 14-16 23-20 10-6 21-9 34-9l298 0c26 0 46 22 46 49l0 256c0 13-4 25-13 33z m-19-289c0-9-5-17-14-17l-298 0c-15 0-24 7-32 16l-96 128 96 128c10 13 21 16 32 16l298 0c8 0 14-6 14-15z"/>
<glyph glyph-name="bag" unicode="&#57409;" d="M448 352l-64 0 0 4c0 69-55 124-123 124l-8 0c-69 0-125-55-125-124l0-4-64 0-32-320 448 0z m-288 4c0 51 42 92 93 92l8 0c50 0 91-41 91-92l0-4-192 0z m-92-292l25 256 35 0 0-36c-10-6-16-16-16-28 0-18 14-32 32-32 18 0 32 14 32 32 0 12-6 22-16 28l0 36 192 0 0-36c-10-6-16-16-16-28 0-18 14-32 32-32 18 0 32 14 32 32 0 12-6 22-16 28l0 36 35 0 25-256z"/>
<glyph glyph-name="battery-charging" unicode="&#57410;" d="M42 128l381 0c6 0 10 4 10 10l0 54 37 0c6 0 10 4 10 10l0 108c0 5-4 10-10 10l-37 0 0 54c0 5-4 10-10 10l-381 0c-5 0-10-5-10-10l0-236c0-6 5-10 10-10z m215 224l-27-81 61 0-100-111 28 81-62 0z"/>
<glyph glyph-name="battery-empty" unicode="&#57411;" d="M470 320l-37 0 0 54c0 5-4 10-10 10l-381 0c-5 0-10-5-10-10l0-236c0-6 5-10 10-10l381 0c6 0 10 4 10 10l0 54 37 0c6 0 10 4 10 10l0 108c0 5-4 10-10 10z m-22-96l-47 0 0-64-337 0 0 192 337 0 0-64 47 0z"/>
<glyph glyph-name="battery-full" unicode="&#57412;" d="M470 320l-37 0 0 54c0 5-4 10-10 10l-381 0c-5 0-10-5-10-10l0-236c0-6 5-10 10-10l381 0c6 0 10 4 10 10l0 54 37 0c6 0 10 4 10 10l0 108c0 5-4 10-10 10z"/>
<glyph glyph-name="battery-half" unicode="&#57413;" d="M470 320l-37 0 0 54c0 5-4 10-10 10l-381 0c-5 0-10-5-10-10l0-236c0-6 5-10 10-10l381 0c6 0 10 4 10 10l0 54 37 0c6 0 10 4 10 10l0 108c0 5-4 10-10 10z m-22-96l-47 0 0-64-49 0-32 192 81 0 0-64 47 0z"/>
<glyph glyph-name="battery-low" unicode="&#57414;" d="M42 128l381 0c6 0 10 4 10 10l0 54 37 0c6 0 10 4 10 10l0 108c0 5-4 10-10 10l-37 0 0 54c0 5-4 10-10 10l-381 0c-5 0-10-5-10-10l0-236c0-6 5-10 10-10z m359 224l0-64 47 0 0-64-47 0 0-64-177 0-32 192z"/>
<glyph glyph-name="beaker" unicode="&#57415;" d="M144 319l0-223c0-9 7-17 16-17l208 0c9 0 16 8 16 17l0 223z m216-151c0-4-4-8-8-8-5 0-8 4-8 8l0 48c0 4 3 8 8 8 4 0 8-4 8-8z m-8 72c-4 0-8 4-8 8 0 4 4 8 8 8 5 0 8-4 8-8 0-4-3-8-8-8z m93 239l-317 0c-54 0-64-27-64-39 30-5 32-5 32-37 0-16 0-307 0-307 0-35 29-65 64-65l208 0c35 0 64 30 64 65 0 0 0 317 0 335 0 21 12 39 13 41 1 2 3 3 3 5 0 1 0 2-3 2z m-45-48l0-335c0-18-13-33-30-33l-210 0c-17 0-32 15-32 33l0 307c0 12 1 37-4 44 1 1 3 0 4 0l273 0c-1 0-1-10-1-16z"/>
<glyph glyph-name="beer" unicode="&#57416;" d="M416 352l-32 0 0 16c15 3 32 24 32 48 0 35-29 64-64 64-16 0-31-6-42-16-13 10-29 16-46 16-16 0-30-5-42-14-10 9-23 14-37 14-17 0-32-8-43-20-12 12-28 20-46 20-35 0-64-29-64-64 0-16 6-31 16-42 0-1 0-1 0-1l0-54c0-27 22-48 48-48l0-223c0-9 7-16 16-16l256 0c9 0 16 7 16 16l0 80 32 0c35 0 64 29 64 64l0 96c0 35-29 64-64 64z m-88-144c-2 0-3 1-4 1-3 2-4 4-4 7l0 48c0 4 4 8 8 8 4 0 8-4 8-8l0-48c0-5-4-8-8-8z m7 76c-1-2-3-3-5-4-2 0-4 0-6 1-2 1-3 3-4 5 0 2 0 5 2 6 1 2 3 3 5 4 2 0 4 0 6-1 1-2 3-3 3-5 1-2 0-5-1-6z m17 68l0-32-128 0c0 4-3 8-8 8-4 0-8-4-8-8l-80 0 0 41c7 3 12 8 17 14 1 1 2 3 4 4 1-1 3-2 4-3 9-6 20-10 32-10 6 0 12 1 18 3 13-20 35-33 61-33 22 0 42 10 55 25 6 7 10 14 13 23l20 0z m31 55c-3 5-8 9-15 9l-55 0c0 0-9 1-9-8 0-9-3-17-7-24-8-10-20-16-33-16-15 0-28 8-35 20-1 3-2 5-3 8 0 1-1 2-1 2-2 6-7 10-14 10-4 0-7-1-10-4 0 0 0 0 0 0-3-2-5-4-9-5-2 0-5-1-7-1-8 0-15 4-19 9-10 11-24 7-30 5-6-1-12-11-12-11-1-2-2-4-4-6-6-7-14-11-24-11l0-81c-9 0-16 7-16 16l0 69c-8 5-13 12-15 21-1 2-1 5-1 7 0 17 14 32 32 32 12 0 23-8 30-16 7-7 27-7 34 0 7 8 14 16 25 16 6 0 11-2 16-6 2-2 3-3 5-6 1-1 2-4 3-5 2-4 6-6 11-6 4 0 8 2 11 5 0 1 1 2 2 2 2 3 4 5 6 7 7 6 16 9 25 9 11 0 20-4 27-11 2-2 7-5 14-5 4-1 6 0 8 0 10 1 14 5 16 6 6 6 14 10 23 10 17 0 32-15 32-32 0-3 0-6-1-9z m65-215c0-18-14-32-32-32l-32 0 0 160 32 0c18 0 32-14 32-32z m-272 152c0-5-3-8-8-8-4 0-8 3-8 8 0 4 4 8 8 8 5 0 8-4 8-8z m160 0c0-5-3-8-8-8-4 0-8 3-8 8 0 4 4 8 8 8 5 0 8-4 8-8z"/>
<glyph glyph-name="bluetooth" unicode="&#57417;" d="M140 368c-16-16-12-17-11-18 2-1 90-86 90-86 0 0 4-3 4-8 0-5-4-8-4-8 0 0-88-85-90-86-1-1-5-3 11-18 16-16 18-13 19-12l68 64c0 1 0 1 0 1 0 0 0 0 0 0 3 2 10 11 10 3 0-7 0-152 0-156l0-2c0-5 5-10 12-10 3 0 6 1 9 3 0 0 118 113 122 118 5 4 5 10 1 14l-83 81c0 0-5 4-5 8 0 4 5 8 5 8l83 81c4 4 4 10-1 14-4 5-122 117-122 117-2 3-6 4-9 4-7 0-12-5-12-10l0-2c0-5 0-149 0-156 0-8-7 1-10 3 0 0 0 0 0 0 0 0 0 0 0 0l-68 65c-1 1-3 4-19-12z m140 24c0 7 8-2 10-4l30-30c2-2 3-4 3-7 0-2-1-5-3-7-1-2-30-30-30-30-3-1-10-9-10-1 0 0 0 72 0 79z m0-193c0 8 7 0 10-2 0 0 29-27 31-29 1-2 2-5 2-7 0-3 0-6-3-8l-30-29c-2-2-10-11-10-4 0 6 0 79 0 79z"/>
<glyph glyph-name="bonfire" unicode="&#57418;" d="M271 161c-1 9-8 15-16 15-8 0-14-5-16-13l0 0-15-92c-1-2-1-5-1-7 0-18 14-32 32-32 18 0 32 14 32 32 0 3 0 6-1 8z m35-4l0 0 0 0z m87-35c-2 1-3 3-5 4l-64 47c-6 4-12 4-16-1-5-4-5-10-2-15l49-66c1-1 2-3 3-4 8-9 25-10 35 0 9 10 9 27 0 35z m42 68l-59 2c-4 0-7-2-8-6-1-4 1-7 5-9l0 0c0 0 0 0 0 0l57-18c9-2 18 3 18 12 0 12-3 17-13 19z m-296-13l0 0c4 2 5 5 5 9-1 4-4 6-8 6l-60-2c-9-2-12-7-12-19 0-9 9-14 17-12l58 18c0 0 0 0 0 0z m49-4l-64-47c-2-1-3-3-5-4-9-10-9-25 0-35 10-9 25-9 35 0 1 1 2 3 3 4l49 66c3 5 3 11-2 15-4 5-11 5-16 1z m164 211c0 61-72 96-96 96 12-86-102-120-112-192-10-72 48-96 48-96 16 60 72 80 110 106 40 28 50 54 50 86z m0-128c5 16 5 49 0 64-9-19-26-34-47-49-9-6-20-11-29-16-19-12-35-22-47-37 11-17 28-26 43-26 36 0 64 14 80 64z m-200 96c12 16 25 25 38 38 14 14 22 23 28 34-11 21-28 26-42 24 2-30-30-47-32-69-1-13 3-23 8-27z"/>
<glyph glyph-name="bookmark" unicode="&#57419;" d="M344 448l-176 0c-4 0-8-4-8-8l0-56 192 0 0 56c0 4-4 8-8 8z m-184-384l96 96 96-96 0 304-192 0z"/>
<glyph glyph-name="bowtie" unicode="&#57420;" d="M224 300c0 0 8 5 20 7 21 4 39 5 47-9 10-17 19-53 17-85-1-17-5-22-5-22 0 0-15-10-47-7-35 3-40 15-40 15 0 0 4 11 8 43 3 31 0 58 0 58z m-40-73c13 3 23 7 28 9 0 5 1 10 1 15 1 3 1 7 1 10-7 2-14 5-29 10-38 13-57 17-57 17 0 0 14 2 42-3 20-4 35-10 44-14 1 16-2 32-2 32-22 40-92 97-128 97-26 0-52-69-52-144 0-76 23-144 52-144 33 0 116 80 116 80 0 0 6 13 10 34-19-6-64-9-64-9 0 0 21 5 38 10z m244 173c-37 0-103-57-125-97l0-1c0 0 1-3 1-4 4-5 7-14 10-24 8 3 23 9 37 13 20 7 35 10 35 10 0 0-53-24-69-34 2-10 3-21 4-33 5-2 17-6 30-10 19-5 40-11 40-11 0 0-54 5-70 13 0-3 0-6 0-9-1-17-5-22-5-22 8-11 75-79 112-79 29 0 52 68 52 144 0 75-26 144-52 144z"/>
<glyph glyph-name="briefcase" unicode="&#57421;" d="M272 240l-32 0 0 8-208 0 0-176c0-4 3-8 8-8l432 0c5 0 8 4 8 8l0 176-208 0z m200 128l-120 0 0 31c-1 28-22 49-51 49l-90 0c-29 0-50-21-51-49l0-31-120 0c-5 0-8-4-8-8l0-96 208 0 0 8 32 0 0-8 208 0 0 96c0 4-3 8-8 8z m-152 28c0-1 0-1 0-1l0-27-128 0 0 27c0 0 0 0 0 1 0 0 0 0 0 1 0 9 9 19 19 19l90 0c10 0 19-9 19-19 0-1 0-1 0-1z"/>
<glyph glyph-name="bug" unicode="&#57422;" d="M375 385c-30 38-72 63-119 63-47 0-89-25-119-63 7-16 16-30 28-43 25-24 57-37 91-37 34 0 66 13 91 37 12 13 21 27 28 43z m-248-16c-2-3-4-6-5-8-3 1-5 3-8 5-1 1-3 4-4 8 5 11 1 25-10 31-12 6-27 2-33-9-7-12-2-26 9-33 1-1 3-1 4-2 3-6 7-14 14-19 4-4 8-7 15-11-7-20-12-42-13-65-11-1-18-2-25-4-4-2-8-4-12-6-1 0-2 0-3 0-13 0-24-11-24-24 0-13 11-24 24-24 13 0 23 10 24 23 5 1 10 3 17 3 3-33 13-64 29-90-14-11-23-23-27-36 0 0-1 0-2-1-1-1-2-2-3-3-8-10-8-25 2-34 10-9 25-8 34 2 8 9 8 22 1 31 3 6 6 9 13 15 27-31 64-52 104-54l0 225c-53 3-99 35-121 80z m329-113c-1 0-2 0-3 0-4 2-8 4-12 6-7 2-14 3-25 4-1 23-6 45-13 65 7 4 11 7 15 11 7 5 11 13 14 19 1 1 3 1 4 2 11 7 16 21 9 33-6 11-21 15-33 9-11-6-15-20-10-31-1-4-3-7-4-8-3-2-5-4-8-5-1 2-3 5-5 8-22-45-68-77-121-80l0-225c40 2 77 23 104 54 7-6 10-9 13-15-7-9-7-22 1-31 9-10 24-11 34-2 10 9 10 24 2 34-1 1-2 2-3 3-1 1-2 1-2 1-4 13-13 25-27 36 16 26 26 57 29 90 7 0 12-2 17-3 1-13 11-23 24-23 13 0 24 11 24 24 0 13-11 24-24 24z"/>
<glyph glyph-name="calculator" unicode="&#57423;" d="M400 480l-288 0c-9 0-16-7-16-16l0-416c0-9 7-16 16-16l288 0c9 0 16 7 16 16l0 416c0 9-7 16-16 16z m-256-176l32 0 0-32-32 0z m0-64l32 0 0-32-32 0z m0-64l32 0 0-32-32 0z m96-96l-96 0 0 32 96 0z m0 64l-32 0 0 32 32 0z m0 64l-32 0 0 32 32 0z m0 64l-32 0 0 32 32 0z m64-192l-32 0 0 32 32 0z m0 64l-32 0 0 32 32 0z m0 64l-32 0 0 32 32 0z m0 64l-32 0 0 32 32 0z m64-192l-32 0 0 96 32 0z m0 128l-32 0 0 32 32 0z m0 64l-32 0 0 32 32 0z m0 80l-224 0 0 80 224 0z"/>
<glyph glyph-name="calendar" unicode="&#57424;" d="M144 384c18 0 32 14 32 32l0 32c0 18-14 32-32 32-18 0-32-14-32-32l0-32c0-18 14-32 32-32z m224 0c18 0 32 14 32 32l0 32c0 18-14 32-32 32-18 0-32-14-32-32l0-32c0-18 14-32 32-32z m104 64l-56 0 0-41c0-22-23-39-47-39-24 0-49 17-49 39l0 41-128 0 0-41c0-22-24-39-48-39-24 0-48 17-48 39l0 41-56 0c-4 0-8-4-8-8l0-400c0-4 4-8 8-8l432 0c4 0 8 4 8 8l0 400c0 4-4 8-8 8z m-40-368l-352 0 0 256 352 0z"/>
<glyph glyph-name="camera" unicode="&#57425;" d="M430 365l-67 0-40 41c0 0-1 0-1 0l0 0c-6 6-14 10-23 10l-84 0c-10 0-19-4-25-11l0 0-39-40-69 0c-19 0-34-15-34-33l0-202c0-19 15-34 34-34l348 0c19 0 34 15 34 34l0 202c0 18-15 33-34 33z m-174-219c-51 0-92 42-92 93 0 51 41 93 92 93 51 0 92-42 92-93 0-51-41-93-92-93z m168 165c-8 0-14 7-14 15 0 7 6 14 14 14 8 0 14-7 14-14 0-8-6-15-14-15z m-168-2c-39 0-70-31-70-70 0-39 31-70 70-70 39 0 70 31 70 70 0 39-31 70-70 70z"/>
<glyph glyph-name="card" unicode="&#57426;" d="M452 416l-392 0c-15 0-28-13-28-28l0-264c0-16 13-28 28-28l392 0c16 0 28 13 28 28l0 264c0 15-12 28-28 28z m-375-32l358 0c7 0 12-5 13-12l0-20-384 0 0 20c1 7 6 12 13 12z m358-256l-358 0c-7 0-12 5-13 12l0 116 384 0 0-116c-1-7-6-12-13-12z m-339 80l192 0 0-16-192 0z m0-32l96 0 0-16-96 0z m256 32l64 0 0-48-64 0z"/>
<glyph glyph-name="cash" unicode="&#57427;" d="M0 416l0-256 512 0 0 256z m193-224l-113 0c0 27-21 48-48 48l0 80c35 0 64 29 64 64l97 0c-20-23-33-58-33-96 0-38 13-73 33-96z m105 59c-2-4-6-8-10-11-4-2-9-4-14-5-3-1-6-1-9-2l0-9-18 0 0 9c-3 1-5 1-8 2-6 1-11 4-15 7-4 3-8 6-10 11-2 5-4 11-4 16l20 0c0-3 1-7 2-9 1-3 4-5 6-7 3-2 6-3 9-4l0 35c-2 0-5 1-8 1-5 2-9 3-12 5-3 2-6 4-8 7-1 2-3 4-4 7 0 3-1 5-1 8 0 5 1 10 4 14 2 4 5 7 9 10 4 2 9 4 14 5 2 1 4 1 6 2l0 9 18 0 0-10c2 0 5 0 7-1 5-1 10-4 14-6 4-3 7-7 9-11 2-4 4-8 4-13l-20 0c-1 6-3 10-7 13-2 1-5 2-7 3l0-31c3 0 5-1 8-1 3-1 6-2 7-2 4-1 7-3 10-5 2-2 5-4 7-6 1-3 3-5 4-8 1-3 1-5 1-8 0-6-1-11-4-15z m182-11c-26 0-48-21-48-48l-113 0c20 23 33 58 33 96 0 38-13 73-33 96l97 0c0-35 29-64 64-64z m-352 48c0-18-14-32-32-32-18 0-32 14-32 32 0 18 14 32 32 32 18 0 32-14 32-32z m320 0c0-18-14-32-32-32-18 0-32 14-32 32 0 18 14 32 32 32 18 0 32-14 32-32z m-175-11c-3 1-5 1-8 2l0-31c2 1 3 1 4 1 3 1 6 2 8 4 2 1 3 3 4 5 1 2 1 4 1 6 0 4-1 7-3 9-2 2-4 3-6 4z m-37 44c-1-2-2-4-2-7 0-3 1-6 4-8 2-2 5-4 9-5l0 26c-2 0-4-1-6-2-2-1-4-2-5-4z m-236-193l512 0 0-32-512 0z"/>
<glyph glyph-name="chatbox" unicode="&#57428;" d="M124 112l153 0c14 0 14 0 21-5 7-5 86-59 86-59l0 64 4 0c42 0 76 32 76 71l0 209c0 40-34 72-76 72l-264 0c-42 0-76-32-76-72l0-209c0-39 34-71 76-71z"/>
<glyph glyph-name="chatbox-working" unicode="&#57429;" d="M124 112l153 0c14 0 14 0 21-5 7-5 86-59 86-59l0 64 4 0c42 0 76 32 76 71l0 209c0 40-34 72-76 72l-264 0c-42 0-76-32-76-72l0-209c0-39 34-71 76-71z m228 208c18 0 32-14 32-32 0-18-14-32-32-32-18 0-32 14-32 32 0 18 14 32 32 32z m-96 0c18 0 32-14 32-32 0-18-14-32-32-32-18 0-32 14-32 32 0 18 14 32 32 32z m-96 0c18 0 32-14 32-32 0-18-14-32-32-32-18 0-32 14-32 32 0 18 14 32 32 32z"/>
<glyph glyph-name="chatboxes" unicode="&#57430;" d="M294 146c-2 2-7 5-17 5l-116 0c-35 0-65 26-65 59l0 101-2 0c-26 0-46-21-46-46l0-128c0-25 21-41 48-41l16 0 0-48 53 45c2 1 5 3 13 3l90 0c23 0 48 11 52 32z m107 318l-217 0c-35 0-56-27-56-60l0-168c0-33 28-60 63-60l101 0c10 0 15-2 17-4l75-60 0 64 17 0c35 0 63 27 63 60l0 168c0 33-28 60-63 60z"/>
<glyph glyph-name="chatbubble" unicode="&#57431;" d="M256 63c29 0 56 5 81 15 1 1 1 1 2 1 0 0 0 0 0 0 4 2 8 2 11 2 5 0 9-1 13-2l84-31-23 88c0 6 2 11 4 15 1 1 2 3 3 4 21 31 33 68 33 108 0 111-93 201-208 201-115 0-208-90-208-201 0-111 93-200 208-200z"/>
<glyph glyph-name="chatbubble-working" unicode="&#57432;" d="M256 63c29 0 56 5 81 15 1 1 1 1 2 1 0 0 0 0 0 0 4 2 8 2 11 2 5 0 9-1 13-2l84-31-23 88c0 6 2 11 4 15 1 1 2 3 3 4 21 31 33 68 33 108 0 111-93 201-208 201-115 0-208-90-208-201 0-111 93-200 208-200z m96 225c18 0 32-14 32-32 0-18-14-32-32-32-18 0-32 14-32 32 0 18 14 32 32 32z m-96 0c18 0 32-14 32-32 0-18-14-32-32-32-18 0-32 14-32 32 0 18 14 32 32 32z m-96 0c18 0 32-14 32-32 0-18-14-32-32-32-18 0-32 14-32 32 0 18 14 32 32 32z"/>
<glyph glyph-name="chatbubbles" unicode="&#57433;" d="M73 121c2-3 3-6 3-10l-12-63 56 22c3 1 6 2 9 2 3 0 5-1 8-2 0 0 0 0 0 0 1 0 1 0 1 0 18-7 38-12 58-12 47 0 88 21 115 53-14-4-29-6-44-6-96 0-174 75-174 168 0 12 2 23 4 34-30-26-49-64-49-106 0-28 9-55 24-77 0-1 1-2 1-3z m217 343c-83 0-153-57-170-133-2-11-3-23-3-35 0-92 77-167 173-167 16 0 30 2 44 6 9 2 17 4 24 7 1 0 1 1 2 1 0 0 0 0 0 0 3 1 6 2 9 2 4 0 7-1 10-2l69-26-17 74c0 4 1 8 3 12 1 1 2 2 2 3 18 26 28 57 28 90 0 93-78 168-174 168z"/>
<glyph glyph-name="checkmark" unicode="&#57434;" d="M462 402l-55 44c-2 1-4 2-6 2-3 0-5-1-7-2l-199-257c0 0-79 75-81 78-2 2-5 6-10 6-4 0-6-4-8-6-2-2-30-31-44-46-1-1-1-1-2-2-1-1-2-3-2-5 0-3 1-4 2-6l3-3c0 0 139-134 142-136 2-2 5-5 9-5 4 0 7 4 9 6l249 320c1 2 2 4 2 6 0 2-1 5-2 6z"/>
<glyph glyph-name="checkmark-circled" unicode="&#57435;" d="M256 480c-124 0-224-100-224-224 0-124 100-224 224-224 124 0 224 100 224 224 0 124-100 224-224 224z m115-149l-139-179c-1-1-3-3-5-3-3 0-4 1-5 3-2 1-79 76-79 76l-2 1c0 1-1 2-1 3 0 2 1 3 1 4 1 0 1 0 1 1 8 8 24 24 25 25 1 2 2 3 4 3 3 0 5-2 6-3 1-1 45-43 45-43l111 143c1 0 2 1 4 1 1 0 2 0 3-1l31-24c0-1 1-3 1-4 0-1 0-2-1-3z"/>
<glyph glyph-name="checkmark-round" unicode="&#57436;" d="M448 440c-17 13-41 9-54-9l-180-263-99 107c-15 17-39 17-55 2-15-16-16-42-1-58 0 0 120-134 137-147 18-14 42-10 54 9l207 302c12 18 8 44-9 57z"/>
<glyph glyph-name="chevron-down" unicode="&#57437;" d="M256 214l174 167c5 4 12 4 16 0l31-30c4-5 4-12 0-16l-213-204c-2-2-5-3-8-3-3 0-6 1-8 3l-213 204c-4 4-4 11 0 16l31 30c4 4 12 4 16 0z"/>
<glyph glyph-name="chevron-left" unicode="&#57438;" d="M214 256l167 174c4 4 4 11 0 16l-30 30c-4 5-11 5-16 1l-204-213c-2-2-3-5-3-8 0-3 1-6 3-8l204-213c5-4 12-4 16 0l30 31c4 4 4 11 0 16z"/>
<glyph glyph-name="chevron-right" unicode="&#57439;" d="M298 256l-167 174c-4 4-4 11 0 16l30 30c5 5 12 5 16 1l204-213c2-2 3-5 3-8 0-3-1-6-3-8l-204-213c-4-4-11-4-16 0l-30 31c-4 4-4 11 0 16z"/>
<glyph glyph-name="chevron-up" unicode="&#57440;" d="M256 298l174-167c5-4 12-4 16 0l31 30c4 4 4 11 0 16l-213 204c-2 2-5 3-8 3-3 0-6-1-8-3l-213-204c-4-5-4-12 0-16l31-30c4-4 12-4 16 0z"/>
<glyph glyph-name="clipboard" unicode="&#57441;" d="M161 351l192 0c-2 20-10 36-28 41 0 0-1 0-1 0-12 4-21 8-21 21l0 21c0 25-21 46-47 46-25 0-45-21-45-46l0-21c0-13-9-17-21-20-1-1-1-1-1-1-19-5-26-21-28-41z m96 97c8 0 14-7 14-14 0-8-6-14-14-14-8 0-14 6-14 14 0 7 6 14 14 14z m149 0l-74 0 0-13c0-11 9-20 19-20l37 0c7 0 12-5 13-12l0-327c-1-6-6-11-12-12l-264 0c-6 1-11 6-12 12l0 327c1 7 6 12 13 12l37 0c10 0 19 9 19 20l0 13-74 0c-15 0-27-12-27-28l0-360c0-15 12-29 27-29l298 0c15 0 27 14 27 29l0 360c0 16-12 28-27 28z m-261-129l112 0 0-32-112 0z m0-192l160 0 0-32-160 0z m0 64l129 0 0-32-129 0z m0 64l208 0 0-32-208 0z"/>
<glyph glyph-name="clock" unicode="&#57442;" d="M256 480c-124 0-224-100-224-224 0-124 100-224 224-224 124 0 224 100 224 224 0 124-100 224-224 224z m136-360c-10-10-21-19-33-26l-16 27-14-8 16-27c-25-13-52-21-81-22l0 32-16 0 0-32c-29 1-56 9-81 22l16 27-14 8-16-27c-12 7-23 16-33 26-10 10-19 21-26 33l27 16-8 14-27-16c-13 25-21 52-22 81l32 0 0 16-32 0c1 29 9 56 22 81l27-16 8 14-27 16c7 12 16 23 26 33 10 10 21 19 33 26l16-27 14 8-16 27c25 13 52 21 81 22l0-32 16 0 0 32c29-1 56-9 81-22l-16-27 14-8 16 27c12-7 23-16 33-26 10-10 19-21 26-33l-27-16 8-14 27 16c13-25 21-52 22-81l-32 0 0-16 32 0c-1-29-9-56-22-81l-27 16-8-14 27-16c-7-12-16-23-26-33z m8 151l-116 0c-3 5-7 10-12 13l0 68-32 0 0-68c-10-6-16-16-16-28 0-18 14-32 32-32 11 0 21 6 27 15l117 0z"/>
<glyph glyph-name="close" unicode="&#57443;" d="M444 125l-132 132 132 130c5 5 5 14 0 19l-37 38c-3 2-7 4-10 4-4 0-7-2-10-4l-131-130-131 130c-3 2-6 4-10 4-4 0-7-2-10-4l-37-38c-5-5-5-14 0-20l132-130-132-131c-2-3-4-6-4-10 0-4 2-7 4-10l38-37c3-3 6-4 10-4 3 0 7 1 9 4l131 131 131-131c2-3 6-4 10-4 3 0 7 1 9 4l38 37c2 3 4 6 4 10 0 4-2 7-4 10z"/>
<glyph glyph-name="close-circled" unicode="&#57444;" d="M256 479c-124 0-224-100-224-224 0-124 100-224 224-224 124 0 224 100 224 224 0 124-100 224-224 224z m108-300c2-1 3-3 3-5 0-2-1-4-3-6l-21-21c-2-2-4-3-6-3-2 0-4 1-5 3l-76 75-75-76c-2-1-4-2-6-2-2 0-4 1-6 2l-21 22c-2 2-2 4-2 6 0 2 0 4 2 5l76 76-76 75c-3 3-3 9 0 12l21 21c2 2 4 3 6 3 2 0 4-1 5-3l76-74 76 74c1 2 3 3 5 3 3 0 5-1 6-3l22-21c3-3 3-9 0-12l-76-75z"/>
<glyph glyph-name="close-round" unicode="&#57445;" d="M438 125l-131 131 131 131c14 14 14 36 0 50-15 15-37 15-51 0l-131-130-131 130c-14 15-36 15-50 0-15-14-15-36 0-50l130-131-130-131c-15-14-15-36 0-51 14-14 36-14 50 0l131 131 131-131c14-14 36-14 51 0 14 15 14 37 0 51z"/>
<glyph glyph-name="closed-captioning" unicode="&#57446;" d="M0 448l0-384 512 0 0 384z m464-192c0-27-2-47-4-80-2-33-19-57-59-60-40-4-96-4-145-4-49 0-105 0-145 4-40 3-57 27-59 60-2 33-4 53-4 80 0 27 0 44 4 80 4 36 23 57 59 60 36 4 91 4 138 4 2 0 5 0 7 0 2 0 5 0 7 0 47 0 102 0 138-4 36-3 56-24 59-60 4-36 4-53 4-80z m-92-28l0-1c0-18-12-29-27-29-15 0-26 12-27 29 0 0-2 9-2 28 0 18 2 29 2 29 3 20 12 30 28 30 15 0 27-13 27-33 0 0 0-1 0-1l52 0c0 25-7 48-19 62-13 14-32 21-57 21-12 0-24-2-34-5-10-3-19-9-27-17-7-8-13-19-17-33-5-14-7-31-7-53 0-20 2-37 5-51 4-14 9-25 15-33 7-8 15-14 25-17 10-3 22-5 36-5 28 0 49 7 61 21 12 14 19 35 19 62l-53 0c0 0 0-3 0-4z m-177 0l0-1c0-18-12-29-27-29-15 0-26 12-27 29 0 0-2 9-2 28 0 18 2 29 2 29 3 20 12 30 28 30 15 0 27-13 27-33 0 0 0-1 0-1l52 0c0 25-7 48-19 62-13 14-32 21-57 21-12 0-24-2-34-5-10-3-19-9-27-17-7-8-13-19-17-33-5-14-7-31-7-53 0-20 2-37 5-51 4-14 9-25 15-33 7-8 15-14 25-17 10-3 22-5 36-5 28 0 49 7 61 21 12 14 19 35 19 62l-53 0c0 0 0-3 0-4z"/>
<glyph glyph-name="cloud" unicode="&#57447;" d="M398 279c0 1 0 2 0 3 0 65-51 118-115 118-46 0-86-27-105-67-8 4-17 6-26 6-30 0-55-21-59-50-36-12-61-46-61-86 0-50 40-91 90-91l276 0c45 0 82 37 82 83 0 46-37 84-82 84z"/>
<glyph glyph-name="code" unicode="&#57448;" d="M168 120c-6 0-12 2-17 7l-112 112c-9 9-9 25 0 34l112 112c9 9 25 9 34 0 9-9 9-25 0-34l-95-95 95-95c9-9 9-25 0-34-5-5-11-7-17-7z m176 0c6 0 12 2 17 7l112 112c9 9 9 25 0 34l-112 112c-9 9-25 9-34 0-9-9-9-25 0-34l95-95-95-95c-9-9-9-25 0-34 5-5 11-7 17-7z"/>
<glyph glyph-name="code-download" unicode="&#57449;" d="M331 228c6 6 6 17 0 23-7 7-17 7-24 0l-35-34 0 118c0 10-7 17-16 17-9 0-16-7-16-17l0-118-35 34c-6 7-17 7-24 0-6-6-6-17 0-23l63-63c0 0 0 0 0 0 1-1 2-2 3-2 0 0 0 0 0 0 0-1 1-1 1-1 0 0 0 0 0 0 1 0 1-1 2-1 0 0 0 0 0 0 0 0 1 0 1 0 0 0 0 0 0 0 1 0 1 0 1 0 1-1 3-1 4-1 2 0 3 0 4 1 1 0 1 0 1 0 0 0 0 0 0 0 1 0 1 0 1 0 0 0 0 0 0 0 1 0 1 1 2 1 0 0 0 0 0 0 0 0 1 0 1 1 0 0 0 0 0 0 1 0 1 0 2 1 0 0 0 0 0 0 0 0 0 0 1 1 0 0 0 0 0 0z m-163-108c-6 0-12 2-17 7l-112 112c-9 9-9 25 0 34l112 112c9 9 25 9 34 0 9-9 9-25 0-34l-95-95 95-95c9-9 9-25 0-34-5-5-11-7-17-7z m176 0c6 0 12 2 17 7l112 112c9 9 9 25 0 34l-112 112c-9 9-25 9-34 0-9-9-9-25 0-34l95-95-95-95c-9-9-9-25 0-34 5-5 11-7 17-7z"/>
<glyph glyph-name="code-working" unicode="&#57450;" d="M208 256c0-13-11-24-24-24-13 0-24 11-24 24 0 13 11 24 24 24 13 0 24-11 24-24z m72 0c0-13-11-24-24-24-13 0-24 11-24 24 0 13 11 24 24 24 13 0 24-11 24-24z m72 0c0-13-11-24-24-24-13 0-24 11-24 24 0 13 11 24 24 24 13 0 24-11 24-24z m-184-136c-6 0-12 2-17 7l-112 112c-9 9-9 25 0 34l112 112c9 9 25 9 34 0 9-9 9-25 0-34l-95-95 95-95c9-9 9-25 0-34-5-5-11-7-17-7z m176 0c6 0 12 2 17 7l112 112c9 9 9 25 0 34l-112 112c-9 9-25 9-34 0-9-9-9-25 0-34l95-95-95-95c-9-9-9-25 0-34 5-5 11-7 17-7z"/>
<glyph glyph-name="coffee" unicode="&#57451;" d="M383 255c1 5 1 10 1 13 0 20-3 20-16 20l-75 0c7 12 11 24 11 37 0 38-57 56-57 88 0 12 5 21 9 35-26-7-47-34-47-62 0-48 56-48 56-84 0-5-1-9-2-14l-56 0c1 3 1 6 1 9 0 23-39 34-39 53 0 7 1 13 3 21-13-5-28-20-28-37 0-26 32-29 37-46l-101 0c-13 0-16 0-16-20 0-19 8-61 28-111 21-49 45-71 62-86l0 0c5-4 11-7 19-7l102 0c8 0 14 3 19 7l1 0c9 8 20 18 31 33 5-2 10-4 15-5 9-2 17-3 25-3 24 0 46 9 61 26 13 14 21 34 21 54 0 39-28 71-65 79z m-17-127c-8 0-15 1-22 4 4 8 8 16 12 25 10 24 17 47 21 66 22-4 39-24 39-47 0-23-17-48-50-48z"/>
<glyph glyph-name="compass" unicode="&#57452;" d="M256 480c-39 0-76-10-107-27-12 16-31 27-53 27-35 0-64-29-64-64 0-22 11-41 27-53-17-31-27-68-27-107 0-124 100-224 224-224 124 0 224 100 224 224 0 124-100 224-224 224z m-192-64c0 18 14 32 32 32 11 0 20-5 26-13-17-13-32-28-45-45-8 6-13 15-13 26z m328-296c-36-36-85-56-136-56-51 0-99 20-136 56-36 36-56 85-56 136 0 51 20 99 56 136 37 36 85 56 136 56 51 0 100-20 136-56 36-37 56-85 56-136 0-51-20-100-56-136z m-40 264c0 0-102-84-120-104-18-20-72-152-72-152 0 0 102 82 120 104 18 22 72 152 72 152z"/>
<glyph glyph-name="compose" unicode="&#57453;" d="M443 412l-31 31c-7 7-18 7-25 0l-31-32 55-56 32 32c7 7 7 18 0 25z m-97-11l-172-177-14-64 64 14 177 173z m38-145l0-150c0-5-4-10-9-10-5 0-269 0-269 0-6 0-10 5-10 10 0 5 0 268 0 268 0 5 5 10 11 10l149 0 32 32-201 0c-13 0-23-10-23-23l0-306c0-13 11-23 23-23l306 0c13 0 23 10 23 23l0 201z"/>
<glyph glyph-name="connection-bars" unicode="&#57454;" d="M80 160l64 0 0-64-64 0z m96 64l64 0 0-128-64 0z m96 96l64 0 0-224-64 0z m96 96l64 0 0-320-64 0z"/>
<glyph glyph-name="contrast" unicode="&#57455;" d="M256 480c-124 0-224-100-224-224 0-124 100-224 224-224 124 0 224 100 224 224 0 124-100 224-224 224z m136-360c-36-36-85-56-136-56l0 384c51 0 100-20 136-56 36-37 56-85 56-136 0-51-20-100-56-136z"/>
<glyph glyph-name="crop" unicode="&#57456;" d="M352 80l64 0 0-48-64 0z m64 80l0 256-240 0 0-64 176 0 0-192-192 0 0 320-64 0 0-64-64 0 0-64 64 0 0-256 384 0 0 64z"/>
<glyph glyph-name="cube" unicode="&#57457;" d="M467 344c-2 0-3 0-5-1l-2-1-172-89-3-2c0 0 0 0 0 0-8-5-13-13-13-22l0-185c0-7 6-12 13-12 2 0 4 1 6 1 0 0 0 1 0 1l175 92 0 1c9 4 14 12 14 22l0 183c0 7-6 12-13 12z m-13 49l-181 82c0 0-11 5-17 5-6 0-17-5-17-5l-181-82c0 0-8-3-8-9 0-7 8-12 8-12l183-96 2-1c4-2 8-3 13-3 5 0 9 1 13 3l2 1 183 97c0 0 8 4 8 11 0 6-8 9-8 9z m-227-142l-4 2-171 89-2 1c-2 1-3 1-5 1-7 0-13-5-13-12l0-183c0-10 5-18 14-22l0-1 175-92c2-1 4-2 6-2 7 0 13 5 13 12l0 185c0 9-5 17-13 22z"/>
<glyph glyph-name="disc" unicode="&#57458;" d="M256 353c-54 0-97-43-97-97 0-54 43-97 97-97 54 0 97 43 97 97 0 54-43 97-97 97z m0-141c-24 0-43 20-43 44 0 24 19 43 43 43 24 0 44-19 44-43 0-24-20-44-44-44z m0 268c-124 0-224-100-224-224 0-124 100-224 224-224 124 0 224 100 224 224 0 124-100 224-224 224z m0-347c-68 0-123 55-123 123 0 68 55 123 123 123 68 0 123-55 123-123 0-68-55-123-123-123z"/>
<glyph glyph-name="document" unicode="&#57459;" d="M399 343c0 3-2 5-3 7l-84 92c-2 2-4 3-6 4-3 1-7 2-10 2l-160 0c-12 0-23-10-23-23l0-336c0-13 11-25 23-25l243 0c13 0 22 12 22 25l0 245c0 3-1 6-2 9z m-93 58l58-64-58 0z m-161-306l0 320 129 0 0-81c0-15 13-29 28-29l67 0 0-210z"/>
<glyph glyph-name="document-text" unicode="&#57460;" d="M399 343c-1 2-2 4-4 6l-84 92c-2 2-4 3-6 4-3 2-6 3-10 3l-160 0c-12 0-22-11-22-24l0-336c0-13 10-24 22-24l243 0c13 0 23 11 23 24l0 245c0 3-1 7-2 10z m-238-10c0 2 1 2 3 2l71 0c1 0 3 0 3-2l0-10c0-2-2-4-3-4l-71 0c-2 0-3 2-3 4z m0-128c0 2 1 2 3 2l122 0c2 0 3 0 3-2l0-10c0-2-1-4-3-4l-122 0c-2 0-3 2-3 4z m160-74c0-2-1-4-3-4l-154 0c-2 0-3 2-3 4l0 10c0 2 1 2 3 2l154 0c2 0 3 0 3-2z m32 128c0-2-1-4-3-4l-186 0c-2 0-3 2-3 4l0 10c0 2 1 2 3 2l186 0c2 0 3 0 3-2z m-47 75c-6 0-11 6-11 12l0 66 71-78z"/>
<glyph glyph-name="drag" unicode="&#57461;" d="M0 368l512 0 0-32-512 0z m0-96l512 0 0-32-512 0z m0-96l512 0 0-32-512 0z"/>
<glyph glyph-name="earth" unicode="&#57462;" d="M357 386c-2 4-9 12-14 14-6 1-2-5-2-7-2-1-4-2-5-4-1-1 2-6 6-4 5 2 2-2 5-9 4-7 10-7 13-5 3 3-1 12-3 15z m19-45c0 0 0 0 0 0 0 0 0 0 0 0z m59-26c0 0-2 0 0 0z m-179 165c-124 0-224-100-224-224 0-124 100-224 224-224 124 0 224 100 224 224 0 124-100 224-224 224z m-83-397c-5 3-9 7-11 16-4 20 0 32 18 44 9 5 10 12 17 19 2 2 7 11 10 11 3 1 13 3 15 7 4 5 12 27 16 29 6 4 14 16 8 23-7 9-16 9-26 14-8 4-11 22-17 28-12 12-30 19-45 27-8 3-8 4-14-2-8-8-20 2-21 10 0 3-4 19-2 20 18 11-8 8-10 14-6 14 13 26 25 28 14 1 17-22 22-20 3 1 3 12 3 15 1 8 4 9 12 12 9 3 16 7 25 9 11 3 21 1 29 9 4 2 7-2 11-3 8-1 9 11 9 16 0 5 1 9-4 14-8 6-20 0-26-6-7-7-16-6-14 6 1 4 11 9 14 12 4 2 6-3 11-2 6 2 9-4 17-4 3 0 14 6 8 19 1 0 2 0 3 0 2 0 4 0 6 0 2-9-6-17-2-28 9-21 16-3 25 7 3 3 4 3 9 3 3 1 7 10 8 12 20-5 40-13 57-24-7-1-9 2-9-7 0-4 0-14 5-14 8-1 7-7 15-8 7-1 2-8 5-14 4-11-19-14-24-15-14-5 6-25 15-22 3 0 13 2 13 5 0 0-2 11-1 12 2 2 5 3 11 0 13-8 20-26 36-30 2 0 6 0 8-2 3-3 8-8 2-8-9 2-14-1-22 5-7 6-12 11-22 11-9 0-17 4-26 2-5-1-10-3-15-4-5-2-6-10-10-11-20-4-15-23-19-38-1-5-6-21-1-26 9-9 20-21 33-23 7-1 23 5 28-3 2-4 8 4 9 0 4-11-4-18-4-29 0-15 9-20-4-34-13-13-4-31-11-47-5-8-5-20-11-24-14-8-28-15-43-20-27-9-55-12-83-8-15 1-29 5-43 10-4 1-7 2-10 3-3 1-5 2-8 4z m-41 27c-1 0-1 0-2 1-3 3-7 6-10 9-3 4-6 7-9 11-1 0-1 0-1 0 0 1-1 1-1 2-52 63-60 154-16 224 6-6-4-18 7-26 5-4 10-2 9-9-1-6 5-6 6-12 3-12 20-19 10-33-9-12-17-26-10-42 2-6 8-12 12-17 8-8 8-3 8-13 0-4 5-9 5-12-2-8-3-15-4-23-2-29-1-57 21-79-8 5-16 11-23 17-1 0-2 1-2 2z"/>
<glyph glyph-name="easel" unicode="&#57463;" d="M80 368l352 0 0-192-352 0z m384 48l-416 0c-9 0-16-7-16-16l0-256c0-9 7-16 16-16l416 0c9 0 16 7 16 16l0 256c0 9-7 16-16 16z m-16-256l-384 0 0 224 384 0z m-368-128l32 0 28 80-31 0z m191 448l-30 0-17-48 64 0z m101-368l28-80 32 0-29 80z m-132 0l32 0 0-48-32 0z"/>
<glyph glyph-name="edit" unicode="&#57464;" d="M163 72l-91 91 251 250 90-90z m309 352l-48 48c-12 11-32 11-45-2l-45-45 91-91 45 45c13 13 13 33 2 45z m-408-275l-32-117 117 32z"/>
<glyph glyph-name="egg" unicode="&#57465;" d="M256 480c-64 0-160-133-160-257 0-124 64-191 160-191 96 0 160 67 160 191 0 124-96 257-160 257z"/>
<glyph glyph-name="eject" unicode="&#57466;" d="M399 192c10 0 17 7 17 16 0 3-1 6-3 9l-138 190c-4 6-11 9-19 9-8 0-15-3-19-9l-138-191c-2-2-3-5-3-8 0-9 7-16 17-16z m5-32l-296 0c-6 0-12-5-12-12l0-40c0-7 6-12 12-12l296 0c7 0 12 5 12 12l0 40c0 7-5 12-12 12z"/>
<glyph glyph-name="email" unicode="&#57467;" d="M67 363c11-6 164-89 170-92 5-3 11-4 20-4 9 0 15 1 21 4 5 3 158 86 169 92 4 2 11 6 13 10 2 8-1 11-12 11l-382 0c-11 0-14-3-11-11 1-4 8-8 12-10z m389-4c-8-4-82-57-131-88l82-93c2-2 3-4 2-5-1-2-4-1-6 1l-98 83c-15-9-26-16-27-17-8-4-14-4-21-4-7 0-13 0-20 4-2 1-13 8-28 17l-98-83c-2-2-5-3-6-1-1 1 0 3 2 5l82 93c-49 31-123 84-132 88-8 4-9-1-9-5 0-4 0-205 0-205 0-9 14-21 24-21l371 0c9 0 21 12 21 21 0 0 0 201 0 205 0 4 1 9-8 5z"/>
<glyph glyph-name="email-unread" unicode="&#57468;" d="M496 352c0-35-29-64-64-64-35 0-64 29-64 64 0 35 29 64 64 64 35 0 64-29 64-64z m-271 0l-191 0c-11 0-14-3-11-11 1-4 8-8 12-10 11-6 164-89 170-92 5-3 11-4 20-4 9 0 15 1 21 4 3 2 72 40 121 66-9 13-15 30-15 47z m68-113l82-93c2-2 3-4 2-5-1-2-4-1-6 1l-98 83c-15-9-26-16-27-17-8-4-14-4-21-4-7 0-13 0-20 4-2 1-13 8-28 17l-98-83c-2-2-5-3-6-1-1 1 0 3 2 5l82 93c-49 31-123 84-132 88-8 4-9-1-9-5 0-4 0-205 0-205 0-9 14-21 24-21l371 0c9 0 21 12 21 21 0 0 0 94 0 155-22 0-41 9-56 23-26-18-58-40-83-56z"/>
<glyph glyph-name="erlenmeyer-flask" unicode="&#57469;" d="M439 116l-100 150c-13 20-19 44-19 70 0 0 0 73 0 93 0 19 12 33 15 42 2 8 0 8-16 8l-126 0c-16 0-19 0-17-8 3-9 16-23 16-43 0-19 0-92 0-92 0-26-8-50-21-70l-49-77-49-73c-6-9-9-20-9-32 0-28 16-53 63-53l258 0c47 0 63 25 63 53 0 12-3 23-9 32z m-30-45c-4-4-11-8-24-8l-258 0c-13 0-21 4-25 8-3 3-6 7-6 14 0 5 1 10 4 14l99 150c16 25 25 55 25 87l0 111 64 0 0-111c0-31 7-61 23-87l101-150c2-4 4-9 4-14 0-7-4-11-7-14z m-20 30c0 0 0-1 0-1l-82 123-103 0-81-123c-2-2-3-5-3-8 0-7 7-14 14-14l244 0c8 0 14 7 14 15 0 2-1 6-3 8z m-87 69c-1 2-2 4-2 6 0 2 1 4 2 6 2 1 4 2 6 2 2 0 4-1 5-2 2-2 3-4 3-6 0-2-1-4-3-6-1-1-3-2-5-2-2 0-4 1-6 2z m47-59c-1-1-3-1-4-1-3 0-5 1-7 4l-23 35c-3 4-2 9 2 12 1 0 3 1 4 1 3 0 5-1 7-4l23-36c3-3 2-8-2-11z"/>
<glyph glyph-name="erlenmeyer-flask-bubbles" unicode="&#57470;" d="M446 85l-118 199 0 150c0 8-6 14-14 14-8 0-15-6-15-14l0-154c0-1 1-3 1-5-7 11-20 18-35 18-24 0-43-18-43-41 0-16 11-31 26-37l-72 0 35 58c1 3 2 5 2 7l0 31c4-3 10-5 16-5 15 0 28 12 28 26 0 15-13 27-28 27-6 0-12-2-16-5l0 80c0 8-7 14-15 14-8 0-14-6-14-14l0-150-118-199c-2-4-2-10 0-14 3-4 7-7 13-7l355 0c5 0 9 3 12 7 3 4 2 10 0 14z m-164 130c15 6 26 21 26 37 0 6-2 12-4 17l31-54z m-17 168c12 0 22 10 22 21 0 12-10 21-22 21-12 0-22-9-22-21 0-11 10-21 22-21z"/>
<glyph glyph-name="eye" unicode="&#57471;" d="M256 384c-82 0-146-49-224-128 67-68 124-128 224-128 100 0 173 76 224 127-52 58-125 129-224 129z m0-219c-49 0-90 41-90 91 0 50 41 91 90 91 49 0 90-41 90-91 0-50-41-91-90-91z m0 123c0 8 3 15 8 21-3 0-5 0-8 0-29 0-52-24-52-53 0-29 23-53 52-53 29 0 52 24 52 53 0 2 0 5 0 7-6-4-12-7-20-7-18 0-32 14-32 32z"/>
<glyph glyph-name="eye-disabled" unicode="&#57472;" d="M376 354l72 71-23 23-77-78c-28 14-58 23-92 23-82 0-146-52-224-137 35-37 67-73 103-98l-71-71 23-23 77 77c27-14 57-22 92-22 100 0 173 82 224 135-28 35-62 72-104 100z m-210-98c0 50 41 91 90 91 19 0 37-6 52-17l-51-50c-1 2-1 5-1 8 0 8 3 15 8 21-3 0-5 0-8 0-29 0-52-24-52-53 0-9 2-17 5-24l-27-27c-10 14-16 32-16 51z m90-91c-19 0-37 6-52 17l28 27c7-4 15-6 24-6 29 0 52 24 52 53 0 2 0 5 0 7-6-4-12-7-20-7-3 0-5 0-8 1l50 50c10-14 16-32 16-51 0-50-41-91-90-91z"/>
<glyph glyph-name="female" unicode="&#57473;" d="M288 228c55 14 96 64 96 124 0 71-57 128-128 128-71 0-128-57-128-128 0-60 41-110 96-124l0-68-64 0 0-64 64 0 0-64 64 0 0 64 64 0 0 64-64 0z m-32 44c-44 0-80 36-80 80 0 44 36 80 80 80 44 0 80-36 80-80 0-44-36-80-80-80z"/>
<glyph glyph-name="filing" unicode="&#57474;" d="M381 383l-249 0c-12 0-19 0-19-20l0-28 288 0 0 28c0 20-8 20-20 20z m-48 32l-153 0c-13 0-19 0-19-18l192 0c-1 18-7 18-20 18z m99-73l-15 10 0-33-321 0 0 33-16-10c-14-9-17-15-15-41l18-184c4-21 16-22 24-22l300 0c8 0 20 1 24 22l17 184c2 24-2 33-16 41z"/>
<glyph glyph-name="film-marker" unicode="&#57475;" d="M448 304l-344 0 342 68c8 2 14 10 12 18l-9 45c-1 9-10 14-18 13l-370-74c-9-2-14-10-13-18l9-45c1-3 2-6 4-8-7-1-13-7-13-14l0-210c0-8 7-15 16-15l384 0c9 0 16 7 16 15l0 210c0 8-7 15-16 15z m-143-194l-51 36-50-36 19 58-51 36 63 0 19 58 20-58 62 0-51-36z"/>
<glyph glyph-name="fireball" unicode="&#57476;" d="M393 274l0-10c-1-12-4-32-14-55 3 15 5 31 5 47 0 12-1 24-3 35-15 95-90 170-184 186-11 3-18 3-18 3 0 0 1-1 1-1 39-47 44-97 37-132-2-12-5-23-9-31 0 0 3 14 3 29-1 15-4 30-15 39 3-18-1-34-10-48-24-42-85-73-90-151l0-4c0-54 26-99 69-125-7 12-15 35-9 60 4-24 10-36 21-52 8-12 19-19 33-25 14-5 29-7 46-7 56 0 105 29 134 72l0 0 0 0c16 25 26 55 26 88 0 30-8 58-23 82z"/>
<glyph glyph-name="flag" unicode="&#57477;" d="M426 329c-35-5-94-7-133 67-41 79-108 81-148 74-19-4-33-20-33-35l0-197c11-4 23 0 26 1 1 0 2 0 3 1 25 5 51 8 117-24 82-39 153 33 181 84 2 3 9 20 9 36-10-4-22-7-22-7z m-338 151l-16 0c-4 0-8-4-8-8l0-432c0-4 4-8 8-8l16 0c4 0 8 4 8 8l0 432c0 4-4 8-8 8z"/>
<glyph glyph-name="flame" unicode="&#57478;" d="M129 192c13-134 104-160 127-160 23 0 127 40 128 160 1 146-122 143-96 288-87-64-170-179-159-288z m87-48c0 44 40 80 40 80 0 0 41-36 41-80 0-44-41-80-41-80 0 0-40 36-40 80z"/>
<glyph glyph-name="flash" unicode="&#57479;" d="M96 224l147 0-51-192 224 256-147 0 51 192z"/>
<glyph glyph-name="flash-off" unicode="&#57480;" d="M147 60c1 0 1 0 2-1 10-6 22-10 34-14 2-1 4-2 5-2 22-7 44-11 68-11 124 0 224 100 224 224 0 84-47 158-115 196-1 0-1 0-1 0-11 6-23 11-35 15-2 1-3 1-5 2-22 7-44 11-68 11-124 0-224-100-224-224 0-84 47-158 115-196z m-29 295l55-54 36 40-52 53c28 20 62 32 99 32 9 0 18 0 27-2 10-2 19-4 29-7 1-1 3-1 5-2 6-3 12-5 18-8 54-29 91-86 91-151 0-37-12-71-32-99l-55 54-36-40 52-53c-28-20-62-33-99-33-9 0-18 1-27 3-10 1-19 4-29 7-2 1-3 1-5 2-7 3-13 5-19 9-54 28-90 85-90 150 0 37 12 71 32 99z m92-233l139 155-85 0 38 113-139-155 85 0z"/>
<glyph glyph-name="folder" unicode="&#57481;" d="M430 320l-348 0c-18 0-19-9-18-21l13-183c1-11 4-20 21-20l317 0c18 0 20 9 21 20l12 186c1 11 0 18-18 18z m-4 49c0 12-4 15-15 15 0 0-121 0-143 0-22 0-24 0-41 17-14 15-8 15-37 15-22 0-75 0-75 0-17 0-23 1-25-17-2-16-5-57-6-63l344 0z"/>
<glyph glyph-name="fork" unicode="&#57482;" d="M270 363c0 0 0 0 0 0l0 0z m50-17c0 43-15 93-24 134l0 0-8 0 0-117c0-6-3-11-9-11-6 0-8 4-9 10 0 0 0 1 0 1l-10 117-8 0-9-117 0-1c-1-6-4-10-10-10-6 0-9 5-9 11l0 117-8 0c-9-41-24-91-24-134 0-26 15-48 37-58 11-5 11-11 11-11 0 0-16-201-16-213 0-11 4-18 10-24 5-5 14-8 22-8 0 0 0 0 0 0 0 0 0 0 0 0 9 0 17 3 23 8 5 6 9 11 9 24 0 13-16 213-16 213 0 0-1 5 11 11 22 10 37 32 37 58z"/>
<glyph glyph-name="fork-repo" unicode="&#57483;" d="M416 432l-48 0 0 48-64 0 0-48-48 0 0-64 48 0 0-48 64 0 0 48 48 0z m-112-160c0-39-4-42-14-50-8-6-23-7-40-9-9 0-20-1-31-3-10-1-19-5-27-9l0 160c19 11 32 31 32 55 0 35-29 64-64 64-35 0-64-29-64-64 0-24 13-44 32-55l0-210c-19-11-32-31-32-55 0-35 29-64 64-64 35 0 64 29 64 64 0 16-6 30-15 41 7 5 14 9 20 10 8 1 17 2 26 2 24 2 52 4 75 23 31 25 38 52 38 95l0 5z m-144 176c18 0 32-14 32-32 0-18-14-32-32-32-18 0-32 14-32 32 0 18 14 32 32 32z m0-384c-18 0-32 14-32 32 0 18 14 32 32 32 18 0 32-14 32-32 0-18-14-32-32-32z"/>
<glyph glyph-name="forward" unicode="&#57484;" d="M288 214l0-92 160 134-160 144 0-80c-187 0-224-208-224-208 53 93 122 102 224 102z"/>
<glyph glyph-name="funnel" unicode="&#57485;" d="M256 480c-124 0-224-36-224-80 0-8 4-17 11-24l0 0c31-39 149-177 149-216l0-87c0-23 29-41 64-41 35 0 64 18 64 41l0 83c0 1 0 3 0 4 0 39 116 175 151 218l0 0c6 7 9 14 9 22 0 44-100 80-224 80z m0-128c-92 0-176 22-176 48 0 26 83 48 176 48 93 0 176-22 176-48 0-26-84-48-176-48z"/>
<glyph glyph-name="gear-a" unicode="&#57486;" d="M411 256c0 24 15 43 37 56-4 13-9 26-16 38-25-7-45 3-62 20-17 17-22 37-15 62-12 7-25 12-39 16-13-22-36-37-60-37-24 0-47 15-60 37-14-4-27-9-39-16 7-25 2-45-15-62-17-17-37-27-62-20-7-12-12-25-16-38 22-13 37-32 37-56 0-24-15-47-37-60 4-14 9-27 16-39 25 7 45 2 62-15 17-17 22-37 15-62 12-7 25-12 39-16 13 22 36 37 60 37 24 0 47-15 60-37 14 4 27 9 39 16-7 25-2 45 15 62 17 17 37 26 62 20 7 12 12 25 16 38-22 13-37 32-37 56z m-155-98c-54 0-98 44-98 98 0 54 44 98 98 98 54 0 98-44 98-98 0-54-44-98-98-98z"/>
<glyph glyph-name="gear-b" unicode="&#57487;" d="M448 218l0 76-43 0c-3 15-9 28-16 41l30 30-54 54-29-29c-13 7-27 13-42 17l0 41-76 0 0-41c-15-4-29-10-41-17l-30 29-54-54 30-30c-7-13-13-26-16-41l-43 0 0-76 44 0c4-14 10-27 17-39l-32-32 54-54 33 32c11-7 24-12 38-15l0-46 76 0 0 46c14 3 27 8 38 15l33-32 54 54-32 32c8 12 13 25 17 39z m-192-16c-30 0-54 24-54 54 0 30 24 54 54 54 30 0 54-24 54-54 0-30-24-54-54-54z"/>
<glyph glyph-name="grid" unicode="&#57488;" d="M160 359c0-4-3-7-7-7l-50 0c-4 0-7 3-7 7l0 50c0 4 3 7 7 7l50 0c4 0 7-3 7-7z m128 0c0-4-3-7-7-7l-50 0c-4 0-7 3-7 7l0 50c0 4 3 7 7 7l50 0c4 0 7-3 7-7z m128 0c0-4-3-7-7-7l-50 0c-4 0-7 3-7 7l0 50c0 4 3 7 7 7l50 0c4 0 7-3 7-7z m-256-128c0-4-3-7-7-7l-50 0c-4 0-7 3-7 7l0 50c0 4 3 7 7 7l50 0c4 0 7-3 7-7z m128 0c0-4-3-7-7-7l-50 0c-4 0-7 3-7 7l0 50c0 4 3 7 7 7l50 0c4 0 7-3 7-7z m128 0c0-4-3-7-7-7l-50 0c-4 0-7 3-7 7l0 50c0 4 3 7 7 7l50 0c4 0 7-3 7-7z m-256-128c0-4-3-7-7-7l-50 0c-4 0-7 3-7 7l0 50c0 4 3 7 7 7l50 0c4 0 7-3 7-7z m128 0c0-4-3-7-7-7l-50 0c-4 0-7 3-7 7l0 50c0 4 3 7 7 7l50 0c4 0 7-3 7-7z m128 0c0-4-3-7-7-7l-50 0c-4 0-7 3-7 7l0 50c0 4 3 7 7 7l50 0c4 0 7-3 7-7z"/>
<glyph glyph-name="hammer" unicode="&#57489;" d="M410 480l-52 0c-3 0-6-3-6-6l0-6c-4-4-11-9-18-9-10 0-15 16-26 18-11 2-27 3-38 3-10 0-52-1-102-22-50-20-71-64-72-81 0-9 3-21 10-11 7 10 35 42 58 45 22 2 45-1 63-18 18-15 22-30 22-73l-7-2c-4-1-7-6-7-9 0 0 0-7 0-70 0-95-11-201-11-201 0-3 3-6 6-6l84 0c3 0 6 3 6 6 0 0-11 106-11 201 0 63 0 70 0 70 0 3-2 8-7 9l-8 2c0 38 0 54 6 66 7 12 23 23 30 25 6 2 16-1 22-7l0-14c0-3 3-6 6-6l52 0c3 0 6 3 6 6l0 84c0 3-3 6-6 6z"/>
<glyph glyph-name="happy" unicode="&#57490;" d="M256 480c-124 0-224-100-224-224 0-124 100-224 224-224 124 0 224 100 224 224 0 124-100 224-224 224z m-153-221c-8 5-9 15-3 22 10 13 23 23 44 23 21 0 34-10 45-23 5-7 4-17-4-22-3-2-6-3-10-3-5 0-10 2-14 6-3 5-7 10-17 10-9 0-14-5-17-10-3-4-8-6-14-6-3 0-7 1-10 3z m291-58c-23-46-78-73-138-73-62 0-118 28-139 74-3 8 0 17 8 21 2 1 5 1 7 1 6 0 12-3 14-9 16-34 60-55 110-55 49 0 92 20 110 56 3 5 8 8 14 8 3 0 5 0 7-2 8-4 11-13 7-21z m15 58c-3-2-6-3-10-3-5 0-10 2-14 6-3 5-7 10-17 10-9 0-14-5-17-10-3-4-8-6-14-6-3 0-7 1-10 3-8 5-9 15-3 22 10 13 23 23 44 23 21 0 34-10 45-23 5-7 4-17-4-22z"/>
<glyph glyph-name="happy-outline" unicode="&#57491;" d="M387 222c-2 2-4 2-7 2-6 0-11-3-14-8-18-36-61-56-110-56-50 0-94 21-110 55-2 6-8 9-14 9-2 0-5 0-7-1-8-4-11-13-8-21 21-46 77-74 139-74 60 0 115 27 138 73 4 8 1 17-7 21z m26 59c-11 13-24 23-45 23-21 0-34-10-44-23-6-7-5-17 3-22 3-2 7-3 10-3 6 0 11 2 14 6 3 5 8 10 17 10 10 0 14-5 17-10 4-4 9-6 14-6 4 0 7 1 10 3 8 5 9 15 4 22z m-224 0c-11 13-24 23-45 23-21 0-34-10-44-23-6-7-5-17 3-22 3-2 7-3 10-3 6 0 11 2 14 6 3 5 8 10 17 10 10 0 14-5 17-10 4-4 9-6 14-6 4 0 7 1 10 3 8 5 9 15 4 22z m67 199c-124 0-224-100-224-224 0-124 100-224 224-224 124 0 224 100 224 224 0 124-100 224-224 224z m136-360c-36-36-85-56-136-56-51 0-99 20-136 56-36 36-56 85-56 136 0 51 20 99 56 136 37 36 85 56 136 56 51 0 100-20 136-56 36-37 56-85 56-136 0-51-20-100-56-136z"/>
<glyph glyph-name="headphone" unicode="&#57492;" d="M447 274c-3 60-21 108-56 145 0 0 0 0 0 0-7 9-16 16-25 23-9 7-18 13-28 18-25 13-53 20-82 20-29 0-57-7-82-20-10-5-19-11-28-18-9-7-17-14-25-23 0 0 0 0 0 0-34-37-53-86-56-145-3-51 3-130 13-162 20-67 40-80 72-80 32 0 58 26 58 59l0 106c0 32-23 59-53 59-18 0-34-10-44-25 0 0-11 9-13 23-2 15-3 33 5 63 9 31 21 21 36 39 3 4 5 7 8 10 3 3 6 7 10 10 1 1 3 2 5 4 11 9 21 17 33 23 19 8 40 13 61 13 21 0 42-5 61-13 12-6 22-14 33-23 2-2 4-3 5-4 4-3 7-7 10-10 3-3 6-6 8-10 15-18 27-8 36-39 8-30 7-48 5-63-2-14-13-23-13-23-10 15-26 25-44 25-30 0-53-27-53-59l0-106c0-33 27-59 58-59 32 0 52 13 72 80 10 32 16 111 13 162z"/>
<glyph glyph-name="heart" unicode="&#57493;" d="M430 416c-40 42-106 42-146 0l-28-28-27 28c-41 43-106 43-147 0-45-47-45-124 0-171l174-181 174 181c45 47 45 124 0 171z"/>
<glyph glyph-name="heart-broken" unicode="&#57494;" d="M229 224c1 18 0 38 8 55 2 5 1 10 1 15-4 21-14 40-15 60 0 1 1 5 1 6-3-2-8-4-11-5-20-6-18-3-35-14l-11-7c16 18 38 25 56 39 0 15 1 31 3 46-40 40-104 39-144-3-45-47-45-124 0-171l153-159c0 11 0 21-2 31-6 36-4 71-4 107z m93-13c-11 26-33 44-63 50-1 0-2 1-3 1 0 0 0 0 0 0-11-48-23-94-21-142 0-12 4-25 4-38l17-18 104 108c-15 11-30 21-38 39z m108 205c-41 43-106 43-147 0l-19-19c0-14 0-27-3-39-2-10-19-19-16-31 3-13 8-26 11-39 15-8 29-19 41-32 23-27 38-57 65-81l68 70c45 47 45 124 0 171z"/>
<glyph glyph-name="help" unicode="&#57495;" d="M345 435c-27 21-58 28-98 28-29 0-55-6-75-20-30-20-44-54-44-108l77 0c0 14-2 30 7 43 8 13 20 24 40 24 20 0 31-6 41-18 8-11 11-23 11-36 0-12-5-22-12-32-4-5-9-10-15-15 0 0-42-25-56-48-11-18-15-40-16-66 0-2 0-5 7-5 7 0 56 0 62 0 6 0 7 4 7 6 0 9 2 24 3 29 4 11 10 20 20 28l21 14c18 15 33 26 40 36 11 15 19 34 19 57 0 36-13 64-39 83z m-103-293c-26 1-47-17-48-46-1-28 19-46 45-47 27-1 48 17 49 45 1 28-19 47-46 48z"/>
<glyph glyph-name="help-buoy" unicode="&#57496;" d="M256 480c-124 0-224-100-224-224 0-124 100-224 224-224 124 0 224 100 224 224 0 124-100 224-224 224z m178-153l-61-18c-6 14-15 26-26 38-12 11-24 20-38 26l18 61c24-9 46-24 65-42 18-19 33-41 42-65z m-178-167c-53 0-96 43-96 96 0 53 43 96 96 96 53 0 96-43 96-96 0-53-43-96-96-96z m-136 232c19 18 41 33 65 42l18-61c-14-7-26-15-38-27-11-11-20-24-26-38l-61 19c9 24 24 46 42 65z m-42-208l61 19c7-14 15-26 27-38 11-11 24-20 38-26l-19-61c-24 9-46 23-65 42-18 19-33 41-42 64z m314-64c-19-19-41-33-64-42l-19 61c14 6 26 15 38 26 11 12 20 24 26 38l61-18c-9-24-24-46-42-65z"/>
<glyph glyph-name="help-circled" unicode="&#57497;" d="M256 480c-124 0-224-100-224-224 0-124 100-224 224-224 124 0 224 100 224 224 0 124-100 224-224 224z m20-327c0-18-13-29-31-28-16 0-29 12-28 30 0 18 14 29 30 29 17-1 30-13 29-31z m49 128c-4-6-14-14-25-23l-14-9c-6-5-10-11-12-17-1-4-2-13-2-19 0-1-1-4-5-4-3 0-35 0-39 0-4 0-4 2-4 4 0 16 3 30 10 41 9 15 35 30 35 30 4 3 7 6 10 10 4 6 8 13 8 20 0 8-2 16-8 23-6 7-13 11-25 11-13 0-21-6-26-15-5-8-4-18-4-27l-49 0c0 34 9 56 28 68 12 9 29 13 48 13 24 0 44-5 61-18 17-12 25-29 25-52 0-15-5-27-12-36z"/>
<glyph glyph-name="home" unicode="&#57498;" d="M448 224l-192 224-192-224 48 0 0-160 96 0 0 128 96 0 0-128 96 0 0 160z"/>
<glyph glyph-name="icecream" unicode="&#57499;" d="M128 256l128-224 128 224z m275 83c-1 1-2 1-3 2-4 2-8 8-8 12l0 1c3 9 5 19 5 30 0 53-43 96-96 96-32 0-60-15-77-38 0 0-9-14-11-29 0 0 1 19 4 31-7 3-15 4-23 4-42 0-76-34-76-76 0-6 1-12 2-18 0-1 0-1 0-1-1-5-4-10-8-12-1-1-2-1-3-2-8-5-13-13-13-23 0-16 13-28 30-28l260 0c16 0 30 12 30 28 0 10-5 18-13 23z"/>
<glyph glyph-name="image" unicode="&#57500;" d="M368 288c27 0 48 21 48 48 0 26-21 48-48 48-26 0-48-22-48-48 0-27 22-48 48-48z m84 160l-392 0c-16 0-28-13-28-28l0-328c0-15 12-28 28-28l392 0c16 0 28 13 28 28l0 328c0 15-12 28-28 28z m-103-198c-3 4-8 6-13 6-5 0-9-2-13-5l-18-16c-4-3-7-5-12-5-4 0-8 2-11 4-1 1-3 3-4 4l-54 59c-4 4-10 7-17 7-6 0-13-3-16-8l-127-152 0 260c1 7 6 12 13 12l358 0c7 0 12-5 13-12l0-260z"/>
<glyph glyph-name="images" unicode="&#57501;" d="M458 372l-83 4-5 54c-1 11-11 19-23 18l-296-24c-11-1-20-11-19-22l21-236c1-11 11-19 23-18l15 1-2-46c-1-12 9-23 22-23l330-16c14-1 24 9 25 21l14 263c1 13-9 23-22 24z m-355-6l-7-134-18-25-16 178c0 0 0 0 0 0 0 1 0 1 0 1 1 5 4 9 10 9l261 22c5 0 9-3 10-8 0 0 0 0 0-1 0 0 1 0 1 0l2-31-219 11c-13 0-24-9-24-22z m334-236l-47 55-27 33c-3 2-7 5-11 5-4 0-8-1-11-4l-17-12c-3-2-6-3-9-3-4 0-7 1-10 4 0 0-2 2-3 3l-43 49c-3 4-8 6-14 7-5 0-11-3-14-6l-102-109-6-7 0 7 7 128 3 63c0 1 0 1 0 1 0 0 0 0 0 0 1 6 6 10 12 9l204-9 29-2 58-3c6 0 10-4 11-10 0 0 0 0 0 0 0-1 0-1 0-1z m-64 120c20 0 35 15 35 35 0 19-15 35-35 35-19 0-35-16-35-35 0-20 16-35 35-35z"/>
<glyph glyph-name="information" unicode="&#57502;" d="M288 64l0 256-96 0 0-16 32 0 0-240-32 0 0-16 128 0 0 16z m-32 303c26 0 48 22 48 49 0 26-22 48-48 48-27 0-48-22-48-48 0-27 21-49 48-49z"/>
<glyph glyph-name="information-circled" unicode="&#57503;" d="M480 259c-2 124-103 223-227 221-124-2-223-103-221-227 2-124 103-223 227-221 124 2 223 103 221 227z m-224 141c18 0 32-14 32-32 0-18-14-32-32-32-18 0-32 14-32 32 0 18 14 32 32 32z m44-283l-88 0 0 11 22 0 0 160-22 0 0 12 66 0 0-172 22 0z"/>
<glyph glyph-name="ionic" unicode="&#57504;" d="M424 379c3 5 5 11 5 18 0 18-14 32-32 32-7 0-13-2-18-5-34 25-77 40-123 40-115 0-208-93-208-208 0-115 93-208 208-208 115 0 208 93 208 208 0 46-15 89-40 123z m-32-259c-18-17-38-31-61-41-24-10-49-15-75-15-26 0-51 5-75 15-23 10-43 24-61 41-17 18-31 38-41 61-10 24-15 49-15 75 0 26 5 51 15 75 10 23 24 43 41 61 18 17 38 31 61 41 24 10 49 15 75 15 26 0 51-5 75-15 13-6 26-13 38-21-3-5-4-10-4-15 0-18 14-32 32-32 5 0 10 1 15 4 8-12 15-25 21-38 10-24 15-49 15-75 0-26-5-51-15-75-10-23-24-43-41-61z m-40 136c0-53-43-96-96-96-53 0-96 43-96 96 0 53 43 96 96 96 53 0 96-43 96-96z"/>
<glyph glyph-name="ios-alarm" unicode="&#57505;" d="M438 320c13 14 20 32 20 52 0 44-35 79-80 82-2 0-3 0-5 0-21 0-39-7-54-18l54-53-11-10c-25 19-57 32-91 35l0 0c0 9-7 16-15 16-9 0-16-7-16-16l0 0c-34-3-65-16-91-35l-10 10 54 53c-15 11-34 18-54 18-1 0-3 0-5 0-45-3-80-39-80-82 0-20 7-38 20-53l54 53 9-9c-35-32-57-78-57-130 0-44 16-84 43-114l-36-45 12-10 35 43c32-30 75-49 122-49l0 0c0 0 0 0 0 0 47 0 90 19 122 49l35-43 13 10-37 45c27 30 43 71 43 114 0 51-22 98-57 130l9 9z m-166-112l-112 0 0 16 96 0 0 128 16 0z"/>
<glyph glyph-name="ios-alarm-outline" unicode="&#57506;" d="M438 320c13 14 20 32 20 52 0 44-35 79-80 82-2 0-3 0-5 0-21 0-39-7-54-18l54-53-11-10c-25 19-57 32-91 35l0 0c0 9-7 16-15 16-9 0-16-7-16-16l0 0c-34-3-65-16-90-35l-11 10 54 53c-15 11-33 18-54 18-1 0-3 0-4 0-45-3-81-38-81-82 0-20 8-38 20-52l54 52 9-9c-35-32-57-78-57-130 0-43 16-84 43-114l-36-45 12-10 35 43c32-30 75-49 122-49l0 0c0 0 0 0 0 0 47 0 90 19 122 49l35-43 13 10-37 45c27 30 43 71 43 114 0 51-22 98-57 130l9 9z m-362 24c-4 9-6 19-6 28 0 35 28 65 65 67 13 1 23-1 32-6z m340-109c0-87-72-157-160-157-88 0-160 70-160 157 0 88 72 159 160 159 88 0 160-71 160-159z m-71 198c9 5 19 7 32 6 37-2 65-32 65-67 0-10-2-19-6-28z m-89-81l0-128-96 0 0-16 112 0 0 144z"/>
<glyph glyph-name="ios-albums" unicode="&#57507;" d="M480 384l-448 0 0-320 448 0z m-408 32l368 0 0-16-368 0z m32 32l304 0 0-16-304 0z"/>
<glyph glyph-name="ios-albums-outline" unicode="&#57508;" d="M464 368l0-288-416 0 0 288 416 0m16 16l-448 0 0-320 448 0z m-408 32l368 0 0-16-368 0z m32 32l304 0 0-16-304 0z"/>
<glyph glyph-name="ios-americanfootball" unicode="&#57509;" d="M379 379c-73 72-190 85-262 85-39 0-65-4-65-4 0 0-30-215 81-327 73-72 190-85 262-85 39 0 65 4 65 4 0 0 30 215-81 327z m-311-62l127 127c6-1 12-2 18-3l-142-142c-1 6-2 12-3 18z m199-140l29 28-23 23-28-29-12 12 29 28-23 23-28-29-12 12 29 28-23 23-28-29-12 12 29 28-22 23-29-29-11 12 67 67 12-11-29-29 23-22 28 29 12-12-29-28 23-23 28 29 12-12-29-28 23-23 28 29 12-12-29-28 23-23 28 29 12-12-29-28 22-23 29 29 11-12-67-67-12 11 29 29-23 22-28-29z m50-109c-6 1-12 2-18 3l142 142c1-6 2-12 3-18z"/>
<glyph glyph-name="ios-americanfootball-outline" unicode="&#57510;" d="M379 379c-73 72-190 85-262 85-39 0-65-4-65-4 0 0-30-215 81-327 73-72 190-85 262-85 39 0 65 4 65 4 0 0 30 215-81 327z m-314 68c11 1 29 2 52 2l0 0 0 0c27 0 53-2 78-5l-127-127c-1 8-2 15-3 23-4 47-2 88 0 107z m79-303c-24 24-43 55-56 92-7 20-13 41-17 63l142 142c11-2 21-4 31-7 52-13 94-36 124-66 24-24 43-55 56-92 7-20 13-41 17-63l-142-142c-10 2-21 4-31 7-52 13-94 36-124 66z m303-79c-11-1-29-2-52-2-27 0-53 2-78 5l127 127c1-8 2-15 3-23 4-47 2-88 0-107z m-140 129l23-22-29-29 12-11 67 67-11 12-29-29-22 23 29 28-12 12-28-29-23 23 29 28-12 12-28-29-23 23 29 28-12 12-28-29-23 23 29 28-12 12-28-29-23 22 29 29-12 11-67-67 11-12 29 29 22-23-29-28 12-12 28 29 23-23-29-28 12-12 28 29 23-23-29-28 12-12 28 29 23-23-29-28 12-12z"/>
<glyph glyph-name="ios-analytics" unicode="&#57511;" d="M256 480c-115 0-209-86-222-198-1-8-2-17-2-26 0-2 0-4 0-5 3-122 102-219 224-219 105 0 194 73 218 170 1 6 2 11 3 17 2 12 3 24 3 37 0 124-100 224-224 224z m207-248c-8 7-13 16-16 20-1 2-22 36-53 36-28 0-42-26-52-44-1-2-2-5-4-7-11-19-27-30-43-29-13 1-25 11-32 29-10 23-30 47-54 50-12 2-29 0-45-21-4-5-7-10-12-16-10-16-26-40-38-42-21-4-35 12-36 13l0 1-1 0c0 0-15 13-29 34 0 0 0 0 0 0 0 28 5 55 16 81 11 25 26 47 45 66 19 19 41 34 66 45 26 11 53 16 81 16 28 0 55-5 81-16 25-11 47-26 66-45 19-19 34-41 45-66 11-26 16-53 16-81 0-8 0-16-1-24z"/>
<glyph glyph-name="ios-analytics-outline" unicode="&#57512;" d="M256 464c28 0 55-5 81-16 25-11 47-26 66-45 19-19 34-41 45-66 11-26 16-53 16-81 0-28-5-55-16-81-11-25-26-47-45-66-19-19-41-34-66-45-26-11-53-16-81-16-28 0-55 5-81 16-25 11-47 26-66 45-19 19-34 41-45 66-11 26-16 53-16 81 0 28 5 55 16 81 11 25 26 47 45 66 19 19 41 34 66 45 26 11 53 16 81 16m0 16c-124 0-224-100-224-224 0-124 100-224 224-224 124 0 224 100 224 224 0 124-100 224-224 224z m-148-288c-25 0-41 18-42 19-3 4-3 9 1 12 3 2 8 2 11-1 1-1 15-17 36-14 12 2 28 26 38 42 5 6 8 12 12 16 16 20 33 23 45 21 24-3 44-27 54-50 7-17 19-28 32-29 16-1 32 10 43 30 2 2 3 4 4 7 10 17 24 43 52 43 31 0 52-34 53-36 2-4 1-8-3-11-4-2-9-1-11 3 0 0-4 8-12 15-6 6-16 13-27 13-18 0-29-19-38-35-1-3-3-5-4-8-15-24-36-38-58-37-20 2-36 16-46 39-10 24-28 39-41 41-11 1-21-4-31-16-3-4-6-9-10-15-14-20-31-45-50-48-3-1-5-1-8-1z"/>
<glyph glyph-name="ios-arrow-back" unicode="&#57513;" d="M352 384l-32 32-160-160 160-160 32 32-127 128z"/>
<glyph glyph-name="ios-arrow-down" unicode="&#57514;" d="M397 352l19-21-160-171-160 171 19 21 141-151z"/>
<glyph glyph-name="ios-arrow-forward" unicode="&#57515;" d="M160 384l32 32 160-160-160-160-32 32 127 128z"/>
<glyph glyph-name="ios-arrow-left" unicode="&#57516;" d="M352 397l-21 19-171-160 171-160 21 19-150 141z"/>
<glyph glyph-name="ios-arrow-right" unicode="&#57517;" d="M160 397l21 19 171-160-171-160-21 19 151 141z"/>
<glyph glyph-name="ios-arrow-thin-down" unicode="&#57518;" d="M350 190c-3 3-8 3-12 0l-74-67 0 285c0 4-4 8-8 8-4 0-8-4-8-8l0-285-74 67c-4 3-8 3-12 0-3-3-3-9 0-12 0 0 87-79 88-80 1 0 3-2 6-2 3 0 5 2 6 2 1 1 88 80 88 80 1 2 2 4 2 6 0 2-1 4-2 6z"/>
<glyph glyph-name="ios-arrow-thin-left" unicode="&#57519;" d="M190 162c3 3 3 8 0 12l-67 74 285 0c4 0 8 4 8 8 0 4-4 8-8 8l-285 0 67 74c3 4 3 8 0 12-3 3-9 3-12 0 0 0-79-87-80-88 0-1-2-3-2-6 0-3 2-5 2-6 1-1 80-88 80-88 2-1 4-2 6-2 2 0 4 1 6 2z"/>
<glyph glyph-name="ios-arrow-thin-right" unicode="&#57520;" d="M322 162c-3 3-3 8 0 12l67 74-285 0c-4 0-8 4-8 8 0 4 4 8 8 8l285 0-67 74c-3 4-3 8 0 12 3 3 9 3 12 0 0 0 79-87 80-88 0-1 2-3 2-6 0-3-2-5-2-6-1-1-80-88-80-88-2-1-4-2-6-2-2 0-4 1-6 2z"/>
<glyph glyph-name="ios-arrow-thin-up" unicode="&#57521;" d="M350 322c-3-3-8-3-12 0l-74 67 0-285c0-4-4-8-8-8-4 0-8 4-8 8l0 285-74-67c-4-3-8-3-12 0-3 3-3 9 0 12 0 0 87 79 88 80 1 0 3 2 6 2 3 0 5-2 6-2 1-1 88-80 88-80 1-2 2-4 2-6 0-2-1-4-2-6z"/>
<glyph glyph-name="ios-arrow-up" unicode="&#57522;" d="M397 160l19 21-160 171-160-171 19-21 141 150z"/>
<glyph glyph-name="ios-at" unicode="&#57523;" d="M356 192c-10-13-30-29-38-33-8-5-17-8-26-11-9-2-19-4-28-4-15 0-30 3-43 7-14 5-26 12-36 21-9 9-20 25-26 39-5 12-8 26-8 46 0 15 4 31 10 45 5 13 13 25 23 35 10 9 21 17 35 23 12 5 27 8 45 8 13 0 27-3 39-7 12-4 22-10 31-18 8-8 13-16 18-28 5-11 6-20 6-34 0-11-2-22-6-32-4-10-7-16-13-23-6-8-9-12-16-16-8-5-14-7-19-7-3 0-5 1-5 1 0 1-1 2-1 3 0 2 0 5 1 9 1 4 2 7 4 13l39 104-25 0-5-12c-3 4-7 7-12 10-11 7-21 9-32 9-14 0-27-3-39-11-11-6-20-15-28-26-8-11-10-16-13-27l-1-1c-4-13-6-25-6-37 0-8 1-15 4-22 3-8 7-14 12-19 5-5 11-9 18-12 6-4 14-5 22-5 9 0 17 1 27 5 5 1 10 4 14 8 1-2 2-3 4-5 5-5 13-8 22-8 9 0 18 3 30 9 10 6 16 13 24 22 8 10 12 18 17 30 5 12 7 26 7 40 0 18-2 31-8 44-7 15-14 26-25 36-11 10-24 17-38 22-15 5-31 8-47 8-20 0-37-3-52-9-17-7-31-16-43-28-13-12-22-26-29-42-8-16-12-36-12-55 0-25 3-42 11-58 8-18 21-36 33-46 13-11 27-19 43-24 16-6 33-8 49-8 11 0 23 1 34 4 12 4 22 8 32 14 10 5 20 12 28 20 9 8 20 21 23 27 1 3 2 4 3 6l-28 0z m-84 29c-4-5-7-9-11-11-3-2-6-4-10-5l0 0c-4-1-9-2-13-2-5 0-9 1-13 3-4 2-8 4-11 7-3 4-5 7-7 12-2 4-2 9-2 14 0 8 1 18 5 28 0 1 0 2 1 3 2 8 4 11 9 19 4 7 11 14 21 20 8 6 16 8 25 8 4 0 8 0 12-1 3-1 5-2 8-3l0-1c1 0 1 0 2 0l0 0c3-2 6-5 9-8 2-2 4-6 5-9l-20-55c-3-8-6-14-10-19z"/>
<glyph glyph-name="ios-at-outline" unicode="&#57524;" d="M364 191c-5-7-11-15-18-21-7-7-15-13-24-18-9-5-18-9-28-11-9-3-19-4-30-4-16 0-31 2-45 7-15 5-27 13-38 23-11 9-22 26-28 41-6 13-8 27-8 49 0 16 3 33 10 48 6 14 14 26 25 37 10 10 23 18 37 24 13 6 29 9 47 9 15 0 29-3 42-7 13-5 24-12 33-20 9-8 14-17 20-30 5-11 7-21 7-36 0-12-2-24-7-35-4-11-7-17-14-25-6-8-10-13-18-17-8-5-15-7-21-7-3 0-6 0-8 2-1 1-2 3-2 5-1 3 0 6 1 10 1 5 2 9 5 14l37 102-17 0-7-17c-3 7-9 12-15 16-11 6-20 9-32 9-13 0-26-4-37-11-11-6-20-15-28-26-8-10-9-16-13-26l-1-2c-4-12-6-25-6-36 0-8 2-15 4-22 3-7 7-13 11-18 5-5 11-9 17-12 7-3 14-4 22-4 8 0 16 1 26 4 6 2 12 6 17 12 1-4 3-6 5-9 5-5 12-7 20-7 9 0 18 3 29 9 10 5 16 12 24 21 8 10 12 18 16 30 5 12 8 26 8 40 0 18-2 30-9 44-6 14-13 25-24 35-10 10-23 17-38 22-15 5-30 8-47 8-20 0-37-3-52-9-16-7-31-16-43-28-12-12-22-26-29-42-7-16-11-36-11-55 0-25 3-42 10-58 8-17 21-36 33-46 13-11 27-19 43-24 16-5 33-8 49-8 12 0 23 2 34 5 11 3 22 7 32 13 10 5 20 12 29 20 8 8 18 21 22 27 1 3 2 4 2 6l-18 0z m-88 27c-5-6-8-10-12-13-4-3-8-5-12-6-5-1-10-1-14-1-6 0-11 1-15 3-5 2-9 5-13 8-3 4-6 8-8 13-2 5-3 10-3 16 0 9 2 20 6 30 0 1 1 3 1 4 3 8 4 11 9 20 6 9 14 16 23 22 9 6 19 9 29 9 4 0 8-1 13-2 4-1 6-2 9-4 1 0 1 0 2-1 4-2 7-5 10-8 3-4 5-8 6-13l-20-57c-3-9-7-15-11-20z"/>
<glyph glyph-name="ios-barcode" unicode="&#57525;" d="M48 384l0-256 416 0 0 256z m80-192l-16 0 0 128 16 0z m64-32l-16 0 0 192 16 0z m71 16l-16 0 0 160 16 0z m73-16l-16 0 0 192 16 0z m64 32l-16 0 0 128 16 0z"/>
<glyph glyph-name="ios-barcode-outline" unicode="&#57526;" d="M48 128l80 0 0 16-64 0 0 224 64 0 0 16-80 0z m336 256l0-16 64 0 0-224-64 0 0-16 80 0 0 256z m-272-64l16 0 0-128-16 0z m272 0l16 0 0-128-16 0z m-64 32l16 0 0-192-16 0z m-144 0l16 0 0-192-16 0z m71-16l16 0 0-160-16 0z"/>
<glyph glyph-name="ios-baseball" unicode="&#57527;" d="M256 464c-8 0-16 0-24-1-103-12-184-100-184-207 0-115 93-208 208-208 107 0 195 81 207 184 1 8 1 16 1 24 0 115-93 208-208 208z m4-399c-1 9-2 18-3 26l-22-7-5 16 23 7c-2 8-5 16-8 24-2 4-4 9-6 14l-20-13-9 13 21 14c-7 12-16 24-26 35l-17-17-11 11 17 17c-11 10-22 18-34 25l-14-21-14 9 14 20c-5 3-10 5-15 7-8 3-15 6-23 8l-8-24-15 5 7 23c-9 1-18 2-27 3 0 5 1 11 1 16 11-1 21-2 31-4l8 23 15-5-7-22c14-4 28-9 42-16l13 19 14-9-13-18c13-8 25-17 36-28l17 17 11-11-17-17c11-12 20-24 28-37l19 13 9-14-20-13c7-14 12-28 16-42l23 7 5-15-24-8c2-10 3-20 4-30-5 0-11-1-16-1z m151 172l-9-27-15 5 8 25c-14 4-28 10-41 17l-15-23-13 9 14 21c-13 8-25 18-37 28l-19-19-11 11 19 19c-10 12-19 24-27 36l-21-14-9 13 22 15c-7 13-12 27-16 41l-25-8-5 16 26 8c-3 12-4 23-5 35 6 1 11 1 16 1 1-10 2-21 4-31l20 6 5-15-21-7c2-7 4-14 7-21 3-6 5-11 8-16l17 12 9-13-19-13c8-12 16-23 25-33l15 15 12-12-15-15c10-9 22-18 34-25l12 18 14-9-12-17c5-2 10-5 15-7 7-3 15-5 22-7l7 20 15-5-6-19c10-2 20-3 30-4 0-5 0-10-1-16-11 1-23 2-34 5z"/>
<glyph glyph-name="ios-baseball-outline" unicode="&#57528;" d="M463 233c0 1 0 2 0 3 0 0 0 0 0 0 1 7 1 13 1 20 0 115-93 208-208 208-8 0-16 0-24-1 0 0 0 0 0 0 0 0 0 0 0 0-97-11-174-89-183-187 0 0 0 0 0 0 0 0 0-1 0-2 0-2 0-3-1-5 0 0 0-1 0-1 0-1 0-2 0-3 0-1 0-1 0-1 0-3 0-5 0-8 0-115 93-208 208-208 3 0 5 0 8 0 0 0 0 0 1 0 1 0 2 0 3 0 1 0 1 0 1 0 2 1 4 1 5 1 1 0 2 0 2 0 0 0 0 0 0 0 98 9 176 86 187 183 0 0 0 0 0 0 0 0 0 0 0 1z m-16 23c0-3 0-5-1-8-10 1-20 2-30 4l6 19-15 5-7-20c-7 2-15 4-22 7-5 2-10 5-15 7l12 17-14 9-12-18c-12 7-24 16-34 25l15 15-12 12-14-15c-10 10-18 21-26 33l19 13-9 13-17-12c-3 5-5 10-8 16-2 7-5 14-7 21l21 7-5 15-20-6c-2 10-3 21-4 31 3 1 5 1 8 1 105 0 191-86 191-191z m-382 0c0 1 0 3 0 4 9-1 18-2 27-3l-7-23 15-5 8 24c8-2 15-5 23-8 5-2 10-4 15-7l-14-20 14-9 14 21c12-7 23-15 34-25l-17-17 11-11 17 17c10-11 19-23 26-35l-21-14 9-13 20 13c2-5 4-10 6-14 3-8 6-16 8-24l-23-7 5-16 22 7c1-8 2-17 3-26-1 0-3 0-4 0-105 0-191 86-191 191z m211-190c-1 10-2 20-4 30l24 8-5 15-23-7c-4 14-9 28-16 42l20 13-9 14-19-13c-8 13-17 25-28 37l17 17-11 11-17-17c-11 11-23 20-36 28l13 18-14 9-13-19c-14 7-28 12-42 16l7 22-15 5-8-23c-10 2-20 3-31 4 10 88 79 158 166 169 1-12 2-23 5-35l-26-8 5-16 25 8c4-14 9-28 16-41l-22-15 9-13 21 14c8-12 17-24 27-36l-19-19 11-11 19 19c12-11 24-20 37-28l-14-21 13-9 15 23c13-7 27-13 41-17l-8-25 15-5 9 27c11-3 23-4 34-5-11-87-81-156-169-166z"/>
<glyph glyph-name="ios-basketball" unicode="&#57529;" d="M256 464c-115 0-208-93-208-208 0-115 93-208 208-208 115 0 208 93 208 208 0 115-93 208-208 208z m125-352c-4-4-9-7-13-10-22 50-51 95-87 136-15-16-32-30-48-44 27-35 44-79 47-127-6-1-11-1-16-1-1 24-7 48-16 71-7 17-17 33-28 47-31-24-65-44-101-61-4 4-8 9-11 13 36 16 70 36 102 60-2 3-5 5-7 7-19 19-41 34-66 45-22 9-46 15-71 16 0 5 0 10 1 16 61-3 117-31 155-74 14 11 27 23 40 36 3 3 5 5 8 8-3 3-7 7-10 10-46 46-99 82-158 108 3 4 6 9 10 13 64-29 121-69 169-119 10 12 21 24 30 37-40 37-67 89-71 147 5 0 10 1 16 1 1-23 7-44 15-65 11-25 26-47 45-66 1-1 3-3 4-4 21 29 38 60 52 93 0 0 0 1 1 2 4-4 8-7 12-11-14-34-32-65-52-95 15-12 31-22 49-29 21-9 42-14 65-16 0-6-1-11-1-16-46 3-89 21-123 48-10-13-20-26-31-38 36-41 66-87 89-138z"/>
<glyph glyph-name="ios-basketball-outline" unicode="&#57530;" d="M256 464c-115 0-208-93-208-208 0-115 93-208 208-208 115 0 208 93 208 208 0 115-93 208-208 208z m191-208c0 0 0 0 0 0-23 2-44 7-65 16-18 7-34 17-49 29 20 30 38 61 52 95 38-35 62-85 62-140z m-74 151c-1-1-1-2-1-2-14-33-31-64-52-93-1 1-3 3-4 4-19 19-34 41-45 66-8 21-14 42-15 65 0 0 0 0 0 0 44 0 84-15 117-40z m-133 39c4-58 31-110 71-147-9-13-20-25-30-37-48 50-105 90-169 119 32 36 77 61 128 65z m41-208c36-41 65-86 87-136-26-19-56-31-88-35-3 48-20 92-47 127 16 14 33 28 48 44z m-19 4c-13-13-26-25-40-36-38 43-94 71-155 74 4 32 16 62 35 88 59-26 112-62 158-108 3-3 7-7 10-10-3-3-5-5-8-8z m-196 22c25-1 49-7 71-16 25-11 47-26 66-45 2-2 5-4 7-7-32-24-66-44-102-60-27 33-43 75-43 120 0 3 0 5 1 8z m53-141c36 17 70 37 101 61 11-14 21-30 28-47 9-23 15-47 16-71-3-1-5-1-8-1-54 0-102 23-137 58z m262-11c-23 51-53 97-89 138 11 12 21 25 31 38 34-27 77-45 123-48-4-51-29-96-65-128z"/>
<glyph glyph-name="ios-bell" unicode="&#57531;" d="M382 286c0 98-53 131-102 138 0 1 0 1 0 2 0 12-11 22-24 22-13 0-24-10-24-22 0-1 0-1 0-2-49-7-102-41-102-138 0-114-28-126-66-158l384 0c-38 32-66 44-66 158z m-126-222c27 0 49 20 52 43l-103 0c2-23 24-43 51-43z"/>
<glyph glyph-name="ios-bell-outline" unicode="&#57532;" d="M382 286c0 98-53 131-102 138 0 1 0 1 0 2 0 12-11 22-24 22-13 0-24-10-24-22 0-1 0-1 0-2-49-7-102-41-102-138 0-114-28-126-66-158l384 0c-38 32-66 44-66 158z m-275-142c9 9 17 18 23 32 12 25 17 59 17 110 0 46 13 80 37 101 23 19 52 23 72 23 20 0 49-4 72-23 24-21 37-54 37-101 0-84 15-117 40-142z m149-80c27 0 49 20 52 43l-103 0c2-23 24-43 51-43z"/>
<glyph glyph-name="ios-body" unicode="&#57533;" d="M304 432c0-26-21-48-48-48-27 0-48 22-48 48 0 27 21 48 48 48 27 0 48-21 48-48z m120-64l-336 0c-13 0-24-11-24-24 0-13 11-24 24-24l98 0c6-1 14-4 18-14 4-12 2-34-1-52l-4-21c0 0 0-1 0-1 0 0 0 0 0 0l-30-172c-2-13 6-25 19-28 13-2 26 7 28 20l21 120 0-1c0 0 6 33 18 33l2 0c12 0 18-33 18-33l0 1 21-120c2-13 15-22 28-20 13 3 21 15 19 28l-30 172c0 0 0 0 0 0 0 0 0 1 0 1l-4 21c-3 18-5 40-1 52 4 10 12 13 18 14l98 0c13 0 24 11 24 24 0 13-11 24-24 24z"/>
<glyph glyph-name="ios-body-outline" unicode="&#57534;" d="M256 464c18 0 32-14 32-32 0-18-14-32-32-32-18 0-32 14-32 32 0 18 14 32 32 32m0 16c-27 0-48-21-48-48 0-26 21-48 48-48 27 0 48 22 48 48 0 27-21 48-48 48z m168-112l-336 0c-13 0-24-11-24-24 0-13 11-24 24-24l100 0c6 0 14-4 18-15 4-12 2-33-1-51l-4-21c0-1 0-1 0-1l-32-172c-3-13 6-25 19-28 2 0 3 0 5 0 11 0 20 8 23 20l20 120 0 0c0 0 7 31 19 31l2 0c12 0 17-31 17-31l0 0 21-120c3-12 13-20 24-20 2 0 3 0 5 0 13 3 21 15 19 28l-32 172c0 0 0 0 0 0 0 1 0 1 0 1l-4 21c-3 18-5 39-1 51 4 11 13 15 18 15l100 0c13 0 24 11 24 24 0 13-11 24-24 24z m-336-32c-4 0-8 4-8 8 0 4 4 8 8 8l336 0c4 0 8-4 8-8 0-4-4-8-8-8l-101 0c-16 0-28-15-31-24-5-12-5-32-1-61l0 0 0 0 3-19 1-3 32-172c1-3 0-5-1-6-1-1-2-3-5-3-1 0-1 0-2 0-4 0-7 2-8 6l-21 120 0 0c0 2-2 10-5 19-2 6-5 11-8 15-7 9-15 11-20 11l-2 0c-5 0-13-2-20-11-3-4-6-9-8-15-4-9-6-17-6-18l0-1-21-120c-1-4-4-6-7-6-1 0-1 0-2 0-3 0-4 2-5 3-1 1-2 3-1 6l32 172 0 0 0 1 4 21 0 0 0 0c5 29 4 49 0 61-4 9-14 24-32 24"/>
<glyph glyph-name="ios-bolt" unicode="&#57535;" d="M303 448l-160-224 96 0-30-160 160 224-96 0z"/>
<glyph glyph-name="ios-bolt-outline" unicode="&#57536;" d="M274 380l-17-89-3-19 84 0-100-140 17 89 3 19-84 0 100 140m29 68l-160-224 96 0-30-160 160 224-96 0z"/>
<glyph glyph-name="ios-book" unicode="&#57537;" d="M164 448c-55 0-100-26-100-79l0-283 22 0c13 26 44 42 78 42 41 0 74-28 82-64l2 0 0 353c-17 21-49 31-84 31z m184 0c-35 0-67-10-84-31l0-353 2 0c8 36 41 64 82 64 34 0 61-12 78-42l22 0 0 283c0 53-45 79-100 79z"/>
</font>
</defs>
</svg>
